SplineFontDB: 3.0
FontName: TheVlamits
FullName: The Vlamits
FamilyName: The Vlamits
Weight: Standard
Copyright: Created by Frank B. with FontForge 2.0 (http://fontforge.sf.net)\n\nThis font can be used freely if not modified. \n\nLGCK Builder (Game Construction Kit)\nhttp://www.sassociations.net/cfrankb/lgck
UComments: "2010-8-1: Created." 
Version: 001.000
ItalicAngle: 0
UnderlinePosition: -102
UnderlineWidth: 51
Ascent: 819
Descent: 205
LayerCount: 2
Layer: 0 0 "Back"  1
Layer: 1 0 "Fore"  0
NeedsXUIDChange: 1
XUID: [1021 95 207562864 15229501]
FSType: 0
OS2Version: 0
OS2_WeightWidthSlopeOnly: 0
OS2_UseTypoMetrics: 1
CreationTime: 1280711885
ModificationTime: 1280808818
OS2TypoAscent: 0
OS2TypoAOffset: 1
OS2TypoDescent: 0
OS2TypoDOffset: 1
OS2TypoLinegap: 92
OS2WinAscent: 0
OS2WinAOffset: 1
OS2WinDescent: 0
OS2WinDOffset: 1
HheadAscent: 0
HheadAOffset: 1
HheadDescent: 0
HheadDOffset: 1
DEI: 91125
Encoding: ISO8859-1
UnicodeInterp: none
NameList: Adobe Glyph List
DisplaySize: -36
AntiAlias: 1
FitToEm: 1
WinInfo: 44 11 11
Grid
414 1331 m 0
 414 -717 l 0
-1024 1095 m 0
 2048 1095 l 0
-18 1331 m 0
 -18 -717 l 0
EndSplineSet
BeginChars: 256 100

StartChar: A
Encoding: 65 65 0
Width: 763
VWidth: 0
Flags: HW
LayerCount: 2
Fore
SplineSet
274.462 379.127 m 1
 372.715 410.936 447.705 401.458 512.35 373.617 c 1
 487.03 375.286 523.688 384.479 474.926 493.078 c 1
 451.282 599.895 362.114 688.753 283.27 471.122 c 1
 241.843 363.183 269.232 410.098 274.462 379.127 c 1
37.7061 298.271 m 1
 292.637 1257.48 697.85 662.733 706.274 331.024 c 1
 811.507 -121.953 693.209 12.3213 620.061 -16.1553 c 1
 564.37 3.38965 572.13 33.3408 563.061 60.5322 c 1
 558.526 133.242 505.239 183.917 493.566 236.862 c 1
 447.741 263.314 358.187 275.359 295.872 240.055 c 1
 242.307 252.505 252.771 191.263 229.345 114.227 c 1
 202.78 63.3975 182.553 -35.4785 146.247 -6.95215 c 1
 -24.3525 -26.085 10.4521 -4.40137 37.7061 298.271 c 1
814.816 -125.024 m 1
EndSplineSet
EndChar

StartChar: B
Encoding: 66 66 1
Width: 634
VWidth: 0
Flags: HW
LayerCount: 2
Fore
SplineSet
31.4209 807 m 1
 160.421 819 l 5
 127.091 553.47 143.014 264.979 151.421 0 c 5
 31.4209 0 l 1
 21.1623 265.43 -6.62379 524.761 31.4209 807 c 1
188.859 71.252 m 24
 228.262 43.9111 250.488 28.4883 289.892 1.14746 c 24
216 441 m 1
 323.14 508.633 448.34 460.024 453.626 410.556 c 1
 839.912 188.031 391.897 25.7588 484.243 65.6426 c 1
 337.541 -72.1035 -41.7568 29.5439 188.859 71.252 c 1
 411.402 137.968 451.669 228.968 326.63 348.863 c 1
 97.0168 259.984 -51.1776 464.533 216 441 c 1
214.421 792 m 1
 321.561 859.633 416.251 810.545 421.54 761.076 c 1
 807.826 538.552 359.811 376.279 452.155 416.164 c 1
 319.958 280.175 171.138 371.381 219.475 404.947 c 1
 442.018 471.664 419.583 579.488 294.542 699.384 c 1
 214.421 792 l 1
151.421 807 m 1
 248.69 852.953 381.304 794.909 400.54 776.076 c 1
 786.826 553.552 359.811 376.279 452.155 416.164 c 1
 319.958 280.175 171.138 371.381 219.475 404.947 c 1
 442.018 471.664 419.583 579.488 294.542 699.384 c 1
 161.236 660.94 -157.828 842.508 151.421 807 c 1
EndSplineSet
EndChar

StartChar: C
Encoding: 67 67 2
Width: 799
VWidth: 0
Flags: HW
LayerCount: 2
Fore
SplineSet
662.985 672 m 24
 649.462 694.548 643.996 708.952 626.985 729 c 24
 610.892 747.967 600.582 758.659 578.985 771 c 24
 550.687 787.17 532.772 793.803 500.985 801 c 24
 470.091 807.995 451.555 804.405 419.985 807 c 24
 366.144 811.426 336.001 819.858 281.985 819 c 24
 261.267 818.671 250.417 811.278 231.016 804 c 24
 212.883 797.198 202.031 793.89 186.016 783 c 24
 172.333 773.696 166.525 765.781 156.016 753 c 24
 137.587 730.586 128.117 717.141 112.016 693 c 24
 97.6504 671.46 88.3479 659.726 77.9854 636 c 24
 66.7275 610.223 62.5018 594.582 56.9854 567 c 24
 50.752 535.833 50.1722 517.709 47.9854 486 c 24
 45.4883 449.797 44.3257 429.283 44.9854 393 c 24
 45.498 364.827 48.5653 349.073 50.9854 321 c 24
 54.415 281.213 48.8305 257.345 59.9854 219 c 24
 68.0576 191.253 83.217 180.216 98.9854 156 c 24
 115.985 129.894 125.713 115.233 143.985 90 c 24
 150.312 81.2637 153.636 75.8307 161.985 69 c 24
 179.567 54.6143 190.451 47.5981 209.985 36 c 24
 227.981 25.3145 238.187 18.788 257.985 12 c 24
 279.475 4.63184 292.274 -0.553984 314.985 0 c 24
 388.995 1.80566 430.603 7.99512 503.955 18 c 24
 525.981 21.0039 468.521 23.3916 446.955 18 c 24
 438.311 15.8389 459.235 10.8357 467.955 9 c 24
 481.741 6.09766 490.666 1.32084 503.955 6 c 24
 575.108 31.0537 625.647 32.7002 680.955 84 c 24
 714.662 115.264 704.743 152.448 710.955 198 c 24
 715.384 230.48 715.168 250.022 707.955 282 c 24
 703.154 303.284 697.657 316.961 680.955 331 c 24
 668.132 341.779 654.848 334.702 638.955 340 c 24
 626.545 344.137 620.922 360.284 608.955 355 c 24
 584.731 344.304 575.488 328.761 561.955 306 c 24
 556.937 297.56 565.672 290.794 564.955 281 c 24
 563.312 258.555 564.079 244.988 555.955 224 c 24
 549.619 207.634 539.725 201.856 528.955 188 c 24
 523.352 180.791 520.368 176.529 513.985 170 c 24
 502.797 158.556 499.967 141.14 483.985 142 c 24
 407.232 146.131 300 126 291 182 c 4
 287.496 203.799 278.969 210.436 270 228 c 24
 260.232 247.129 252.605 256.789 243 276 c 24
 236.198 289.604 232.654 297.52 228 312 c 24
 222.095 330.37 221.691 341.563 216 360 c 24
 211.921 373.218 204.191 379.219 203 393 c 24
 201.376 411.796 207.924 422.165 209 441 c 24
 210.269 463.193 204.257 476.282 209 498 c 24
 211.955 511.53 220.399 516.423 228 528 c 24
 245.751 555.035 249.584 575.791 274 597 c 24
 295.875 616.002 313.342 622.526 341.97 627 c 24
 389.744 634.467 418.065 633.683 465.955 627 c 24
 486.684 624.107 503.21 620.961 513.955 603 c 24
 531.979 572.869 520.559 547.85 532.955 515 c 24
 536.764 504.908 546.408 504.707 553.955 497 c 24
 564.787 485.938 565.41 472.307 579.955 467 c 24
 597.575 460.571 610.688 462.675 627.955 470 c 24
 651.006 479.779 667.565 486.701 678.955 509 c 24
 697.047 544.419 702.833 569.417 698.955 609 c 24
 696.196 637.158 677.537 647.736 662.985 672 c 24
EndSplineSet
EndChar

StartChar: D
Encoding: 68 68 3
Width: 769
VWidth: 0
Flags: HW
LayerCount: 2
Fore
SplineSet
70.9131 96 m 1
 374.104 152.678 511.988 124.131 598.913 56 c 1
 583.913 -4 l 1
 32.6377 0 l 1
 70.9131 96 l 1
499.913 639 m 1
 562.913 747 l 1
 830.435 552.838 745.316 241.378 595.913 29 c 1
 403.913 38 l 1
 384.427 65.0078 743.276 298.228 499.913 639 c 1
53.6377 801 m 1
 226.536 833.82 454.169 792.038 587.638 738 c 1
 605.638 603 l 1
 455.185 625.419 264.092 650.867 131.638 603 c 1
 53.6377 801 l 1
94.9131 753 m 1
 259.913 756 l 1
 385.286 533.115 374.19 266.982 244.913 44 c 1
 79.9131 38 l 1
 161.956 229.636 180.754 497.396 94.9131 753 c 1
EndSplineSet
EndChar

StartChar: E
Encoding: 69 69 4
Width: 748
VWidth: 0
Flags: HW
LayerCount: 2
Fore
SplineSet
65.2432 114 m 1
 203.093 106.911 -89.7211 109.075 692.243 183 c 1
 692.243 0 l 1
 65.2432 0 l 1
 65.2432 114 l 1
65.2432 450 m 1
 614.243 450 l 1
 560.243 318 l 1
 65.2432 318 l 1
 65.2432 450 l 1
89.2432 831 m 1
 692.243 816 l 1
 668.243 570 l 1
 504.609 679.17 293.573 650.574 83.2432 624 c 1
 93.5732 674.027 89.5195 740.08 89.2432 831 c 1
89.2432 831 m 1
 287.243 831 l 1
 339.263 585 287.904 246 272.243 0 c 1
 74.2432 0 l 1
 37.8662 241.461 61.8174 581.578 89.2432 831 c 1
EndSplineSet
EndChar

StartChar: F
Encoding: 70 70 5
Width: 733
VWidth: 0
Flags: HW
LayerCount: 2
Fore
SplineSet
27 36 m 1
 309 36 l 1
 324 0 l 1
 39 0 l 1
 27 36 l 1
67.625 450 m 1
 616.625 450 l 1
 562.625 318 l 1
 343.149 360.318 220.514 327.408 67.625 318 c 1
 67.625 450 l 1
79.625 828 m 1
 682.625 813 l 1
 670.625 570 l 1
 511.683 698.618 308.282 690.842 85.625 624 c 1
 88.9795 674.676 8.95898 743.681 79.625 828 c 1
79.625 828 m 1
 277.625 828 l 1
 329.645 582 293.286 246 277.625 0 c 1
 79.625 0 l 1
 43.248 241.461 52.2002 578.578 79.625 828 c 1
EndSplineSet
EndChar

StartChar: H
Encoding: 72 72 6
Width: 772
VWidth: 0
Flags: HW
LayerCount: 2
Fore
SplineSet
167.853 501 m 1
 292.898 568.756 459.998 513.197 614.853 501 c 1
 614.853 318 l 1
 465.698 333.423 317.069 424.689 167.853 318 c 1
 167.853 501 l 1
473.853 816 m 1
 579.125 809.521 635.602 797.002 719.853 819 c 1
 568.134 510.267 620.587 243.078 698.853 3 c 1
 613.877 7.42383 523.059 22.501 452.853 0 c 1
 520.316 275.562 365.369 607.398 473.853 816 c 1
128.853 822 m 1
 220.602 792.186 283.896 817.962 311.853 807 c 1
 201.034 537.692 234.795 255.228 284.853 0 c 1
 233.299 13.3994 192.768 39.7031 95.8525 0 c 1
 51.1035 240.034 13.0938 588.482 128.853 822 c 1
EndSplineSet
EndChar

StartChar: I
Encoding: 73 73 7
Width: 712
VWidth: 0
Flags: HW
LayerCount: 2
Fore
SplineSet
69 147 m 1
 255.411 75.6274 456.728 57.0275 612 147 c 1
 651.943 115 640.464 47 600.521 15 c 1
 434.762 -3.21582 263.148 -6.70703 81.5205 15 c 1
 57.458 50.4404 37.4355 119.513 69 147 c 1
75.5205 807 m 1
 642.521 807 l 1
 676.4 778.657 656.598 686.938 645 651 c 1
 469.504 745.367 271.384 717.124 72 645 c 1
 60.1074 679 27.9971 773 75.5205 807 c 1
231.521 804 m 1
 416.927 793.148 383.007 787.535 429.521 780 c 1
 471.024 426.344 425.39 211.043 432.521 36 c 1
 282.595 5.4248 128.429 -26.793 219.521 36 c 1
 251.254 224.778 324.147 504.61 231.521 804 c 1
EndSplineSet
EndChar

StartChar: J
Encoding: 74 74 8
Width: 727
VWidth: 0
Flags: HW
LayerCount: 2
Fore
SplineSet
0 395 m 1
 213 386 l 1
 213 353 l 1
 -3 353 l 1
 0 395 l 1
85 186 m 1
 177.881 105.48 333.109 130.292 503.9 162 c 1
 474.497 33 l 1
 343.151 3 203.59 -2.30566 77.0605 51 c 1
 85 186 l 1
46 396 m 1
 180 357 l 1
 42 207 139.042 172.027 225 84 c 1
 64 60 l 1
 29.4238 166.851 -23.4932 325.062 46 396 c 1
199.325 795 m 1
 402.23 838.479 546.804 817.376 699.247 777 c 1
 678.88 780.432 706.161 646.323 690 633 c 0
 673.35 619.274 612.308 725.761 524.502 690 c 1
 544.977 621.614 521.321 590.895 531.039 555 c 1
 511.67 370.986 516.4 214.79 490.771 102 c 1
 328.021 102 l 1
 409.233 148.705 381.473 399.271 389.975 582 c 1
 374.328 614.081 428.3 701.013 304.416 706 c 1
 252.236 715.869 205.198 641.963 180.725 666 c 0
 161.231 685.146 176.082 790.422 199.325 795 c 1
EndSplineSet
EndChar

StartChar: K
Encoding: 75 75 9
Width: 721
VWidth: 0
Flags: HW
LayerCount: 2
Fore
SplineSet
59.793 810 m 1
 84.8984 818.463 161.516 816.901 226.207 813 c 1
 234.188 393 l 1
 235.25 386.473 205 508 212.207 450 c 1
 661.207 816 l 1
 679.062 745 663.574 685 660 614 c 1
 184.207 199 l 0
 216 498 l 1
 663 176 l 1
 685.335 151.826 660.521 30.7451 651 0 c 1
 210.885 297 l 1
 218.793 15 l 1
 150.145 -7.95312 98.7988 -1.80762 53.793 15 c 1
 50.7539 281.552 98.2332 528.696 59.793 810 c 1
EndSplineSet
EndChar

StartChar: L
Encoding: 76 76 10
Width: 685
VWidth: 0
Flags: HW
LayerCount: 2
Fore
SplineSet
7 816 m 5
 365 813 l 1
 380 777 l 1
 10 780 l 5
 7 816 l 5
93.0137 799 m 1
 261.143 824.38 315.459 836.387 285 801 c 1
 107.755 588.979 255.331 331.146 258 123 c 1
 490.028 92.2148 527.546 119.252 585 214 c 1
 674.546 181.007 723.284 55.1845 582.014 16 c 1
 437.92 -1.01724 225.596 0.429663 75 27 c 1
 53.7219 265.308 -85.2129 490.131 93.0137 799 c 1
EndSplineSet
EndChar

StartChar: M
Encoding: 77 77 11
Width: 829
VWidth: 0
Flags: HW
LayerCount: 2
Fore
SplineSet
579 52 m 5
 663.959 22.2422 746.812 3.00586 816 52 c 5
 816 0 l 1
 579 0 l 1
 579 52 l 5
21 48 m 1
 140.532 2.41282 183.968 33.0139 243 48 c 1
 243 0 l 1
 21 0 l 1
 21 48 l 1
608.703 807.173 m 1
 629.59 827.537 695.948 857.008 796.136 810.24 c 1
 774.023 540.46 777.59 279.532 784.945 42.3428 c 1
 747.275 -21.4714 626.751 -16.8801 645.07 60.7471 c 1
 609.858 180.885 628.122 290.149 622.69 598.582 c 1
 379.309 215.145 l 1
 382.105 518.827 l 1
 608.703 807.173 l 1
81.9404 801.037 m 1
 78.284 856.308 194.287 812.35 245.028 822.51 c 1
 424.068 429.87 l 1
 422.974 340.027 385.705 240.759 379.309 215.145 c 1
 194.673 656.865 l 1
 171.123 426.641 203.247 214.289 220.685 31.0947 c 1
 197.19 -26.3113 141.492 3.4678 88.3682 12.6904 c 1
 -10.3096 78.4443 45.3613 901.931 81.9404 801.037 c 1
EndSplineSet
EndChar

StartChar: N
Encoding: 78 78 12
Width: 869
VWidth: 0
Flags: HW
LayerCount: 2
Fore
SplineSet
579 822 m 1
 852 822 l 1
 852 798 l 1
 579 798 l 1
 579 822 l 1
540 24 m 1
 633.602 19.7686 724.046 5.98163 825 24 c 1
 825 0 l 1
 540 0 l 1
 540 24 l 1
45 30 m 5
 171.795 12.1506 235.827 25.5981 318 30 c 5
 318 0 l 1
 45 0 l 1
 45 30 l 5
194 672 m 1
 381 798 l 1
 384.019 701.193 593 339 593 339 c 1
 593 339 630.162 194.031 665 135 c 1
 668 48 l 0
 674 5 l 0
 606 0 l 1
 549.941 40.4824 526.058 70.3008 492 114 c 1
 488.665 163.56 404.012 314.688 347 390 c 1
 299 522 l 1
 299 522 217.552 637.343 194 672 c 1
625 820 m 1
 709.901 801.468 862.559 856.062 822 796 c 1
 815.957 779.778 815 744 815 744 c 1
 801 651 l 1
 788.594 468.401 712.31 239.868 798 0 c 1
 757 12 712.666 -2 657.666 -6 c 1
 545.807 127.881 576.305 656.534 609 681 c 1
 615.761 750 l 1
 615.761 750 621.571 810.681 625 820 c 1
59 816 m 1
 179 819 l 0
 300 813 l 0
 381 798 l 1
 321.795 750.066 194.535 347.592 278.5 3 c 1
 241.13 17.5898 174.216 21.3955 105 0 c 1
 48.3828 149.207 15.9014 577.139 47 711 c 1
 47 711 l 1
 47 711 55.4746 798.998 59 816 c 1
EndSplineSet
EndChar

StartChar: O
Encoding: 79 79 13
Width: 745
VWidth: 0
Flags: HW
LayerCount: 2
Fore
SplineSet
159.11 207 m 1
 289.448 98.2158 434.98 105.181 597.11 207 c 1
 597.11 90 l 1
 458.707 16.6318 320.854 -62.041 159.11 90 c 1
 159.11 207 l 1
159.11 752 m 1
 318.069 836.729 458.123 826.998 585.11 752 c 1
 585.11 648 l 1
 448.474 676.689 318.313 740.034 159.11 648 c 1
 159.11 752 l 1
464.11 725 m 1
 491.326 728.078 478.741 756.837 585.11 752 c 1
 770.065 467.451 705.388 277.962 609.11 87 c 1
 467.11 87 l 1
 552.976 294.938 589.561 477.434 464.11 725 c 1
143.085 753 m 1
 298.11 743 l 1
 164.89 463.487 186.674 273.75 301.11 90 c 1
 146.085 90 l 1
 92.5586 260.455 -57.2412 327.131 143.085 753 c 1
EndSplineSet
EndChar

StartChar: zero
Encoding: 48 48 14
Width: 615
VWidth: 0
Flags: HW
LayerCount: 2
Fore
SplineSet
449.409 400 m 4
 440.989 238.108 419.958 112 298.43 112 c 4
 176.9 112 125.197 242.108 133.617 404 c 4
 142.038 565.891 194.444 680 315.973 680 c 4
 437.501 680 457.83 561.891 449.409 400 c 4
37.6172 404 m 4
 25.6143 173.22 120.203 0 292.604 0 c 4
 465.004 0 545.406 169.22 557.409 400 c 4
 569.413 630.78 499.863 824 327.463 824 c 4
 155.062 824 49.6211 634.78 37.6172 404 c 4
EndSplineSet
EndChar

StartChar: P
Encoding: 80 80 15
Width: 781
VWidth: 0
Flags: HW
LayerCount: 2
Fore
SplineSet
18 35 m 1
 300 35 l 1
 312 0 l 1
 36 0 l 1
 18 35 l 1
97.3545 503.07 m 1
 299.229 382.891 488.922 410.309 673.804 503.07 c 1
 673.804 394.335 l 1
 489.323 245.201 299.655 245.268 97.3545 394.335 c 1
 97.3545 503.07 l 1
555.312 720.47 m 1
 673.804 720.47 l 1
 738.798 595.134 745.36 604.32 673.804 471.445 c 1
 555.312 471.445 l 1
 626.713 604.878 602.22 594.506 555.312 720.47 c 1
90.9492 709.01 m 1
 211.655 842.775 490.449 853.058 670.602 771.085 c 1
 670.602 590.59 l 1
 503.488 692.238 333.104 780.617 90.9492 590.59 c 1
 90.9492 709.01 l 1
128 753 m 1
 269.975 688 l 1
 213.886 453.697 185.988 236.366 250.648 17.5898 c 1
 206.99 -3.875 119.849 -7.24414 93.082 40.5098 c 1
 74.4512 279.504 57.7812 506.754 128 753 c 1
EndSplineSet
EndChar

StartChar: one
Encoding: 49 49 16
Width: 401
VWidth: 0
Flags: HW
LayerCount: 2
Fore
SplineSet
87.625 807 m 5
 146.625 712 332.625 838 324.625 807 c 1
 273.473 258.743 294.52 9.44505 348.625 0 c 1
 311.625 46 99.1621 81 93.1621 0 c 5
 47.6708 194.336 64.7199 532.069 87.625 807 c 5
EndSplineSet
EndChar

StartChar: two
Encoding: 50 50 17
Width: 614
VWidth: 0
Flags: HW
LayerCount: 2
Fore
SplineSet
340.23 676.088 m 1
 409.726 734.298 491.304 638.146 570.142 641.14 c 1
 511.141 479.384 486.891 323.941 243 127.777 c 5
 -9.97168 166.306 l 1
 233.24 314.263 439.531 469.114 340.23 676.088 c 1
-9.97168 166.306 m 1
 188.299 160.138 393.237 79.2412 583.191 166.306 c 1
 470.226 133.938 557.034 71.1299 583.191 17.5635 c 1
 -9.97168 17.5635 l 1
 3.24609 71.9307 36.0977 133.407 -9.97168 166.306 c 1
24 777 m 1
 150.776 780.295 576.469 828.149 393 789 c 1
 506.496 867.583 576.357 662.069 571.216 627 c 1
 404.811 682.23 254.809 706.849 0 627 c 1
 31.4111 660.979 28.542 736.077 24 777 c 1
EndSplineSet
EndChar

StartChar: three
Encoding: 51 51 18
Width: 634
VWidth: 0
Flags: HW
LayerCount: 2
Fore
SplineSet
157.438 71.252 m 24
 196.841 43.9111 219.067 28.4883 258.471 1.14746 c 24
214.019 424.577 m 1
 321.158 492.21 416.919 460.024 422.205 410.556 c 1
 808.491 188.031 360.477 25.7588 452.822 65.6426 c 1
 306.12 -72.1035 -73.1777 29.5439 157.438 71.252 c 1
 379.981 137.968 420.248 228.968 295.209 348.863 c 1
 169.388 302.998 -31.5928 457.048 214.019 424.577 c 1
181.931 775.098 m 1
 289.07 842.73 384.83 810.545 390.119 761.076 c 1
 776.405 538.552 328.39 376.279 420.734 416.164 c 1
 288.537 280.175 139.717 371.381 188.054 404.947 c 1
 410.597 471.664 388.162 579.488 263.121 699.384 c 1
 181.931 775.098 l 1
181.931 775.098 m 1
 289.07 842.73 384.83 810.545 390.119 761.076 c 1
 776.405 538.552 328.39 376.279 420.734 416.164 c 1
 288.537 280.175 139.717 371.381 188.054 404.947 c 1
 410.597 471.664 388.162 579.488 263.121 699.384 c 1
 127.525 668.057 -89.2256 692.211 181.931 775.098 c 1
EndSplineSet
EndChar

StartChar: four
Encoding: 52 52 19
Width: 656
VWidth: 0
Flags: HW
LayerCount: 2
Fore
SplineSet
36.7686 784.646 m 1
 118.874 845.117 170.998 798.119 232.475 784.646 c 1
 245.026 605.327 277.101 501.05 260.433 373.854 c 1
 84.2969 373.854 l 1
 98.8945 505.942 98.3691 637.719 36.7686 784.646 c 1
84.2969 571.754 m 1
 269.153 447.587 403.038 495.226 573 582 c 1
 581.562 471.259 589.043 443.28 589.705 373.854 c 1
 418.996 358.652 275.474 322.735 84.2969 373.854 c 1
 84.2969 571.754 l 1
405.815 790.643 m 1
 457.838 815.767 511.891 835.993 593.135 790.643 c 1
 533.386 514.653 684.801 232.093 595.931 32.0264 c 1
 510.953 -25.999 456.772 -4.73438 408.612 32.0264 c 1
 484.174 273.663 418.894 541.688 405.815 790.643 c 1
EndSplineSet
EndChar

StartChar: five
Encoding: 53 53 20
Width: 617
VWidth: 0
Flags: HW
LayerCount: 2
Fore
SplineSet
89.9648 755.85 m 1
 258.773 881.06 553.785 772.325 534 768 c 1
 550.989 722.633 601.709 674.844 523.375 567.524 c 1
 579.771 686.561 572.34 594.293 537 609 c 1
 442.296 667.204 291.598 722.328 212.916 614.652 c 1
 187.1 580.533 219.351 487.673 237.151 442.95 c 5
 281.664 529.216 548.218 429.033 538.382 415.75 c 5
 599.61 288.076 549.661 194.093 516.769 80.9854 c 1
 494.11 45.293 424.921 -1.35449 385.23 2.41113 c 1
 76.9141 -42.9605 4.24434 247.909 108.934 179.865 c 1
 193.744 221.844 159.716 89.3027 334.725 111.215 c 1
 336.562 123.493 388.261 125.393 391.173 139.818 c 1
 450.825 261.389 455.052 255.429 437.746 298.777 c 1
 404.577 342.384 343.026 342.267 250.565 294.522 c 1
 54.8516 347.035 71.2334 536.056 66.9492 633.135 c 1
 60.1738 710.65 97.9512 746.755 89.9648 755.85 c 1
EndSplineSet
EndChar

StartChar: seven
Encoding: 55 55 21
Width: 635
VWidth: 0
Flags: HW
LayerCount: 2
Fore
SplineSet
424.832 669.705 m 1
 602.848 669.705 l 1
 346.268 441.09 202.826 176.136 285.719 0 c 1
 91.9961 0 l 1
 76.6348 182.889 244.072 471.99 424.832 669.705 c 1
32.1523 813.878 m 1
 602.848 813.878 l 1
 602.848 669.705 l 1
 32.1523 669.705 l 1
 32.1523 813.878 l 1
EndSplineSet
EndChar

StartChar: nine
Encoding: 57 57 22
Width: 622
VWidth: 0
Flags: HW
LayerCount: 2
Fore
SplineSet
567.538 123.229 m 1,5,-1
390.487 790.737 m 1,18,19
537.463 63.9082 m 1,26,-1
 520.638 -28.2168 201.14 -8.78906 159.009 9 c 1,0,0
 79.3359 33.9902 74.0488 87.2588 54.2188 135 c 1,27,28
 54.2188 135 169.987 338.686 177.722 171 c 1,0,0
 220.984 62.1543 428.179 117.385 398.727 123 c 1,0,0
 498.864 215.834 449.423 264.177 423.626 372 c 1,0,0
 208.106 296.121 111.455 355.826 72.9316 381 c 1,0,0
 52.0195 435.635 15.3184 465.297 46.7334 483 c 1,0,0
 8.72852 746.052 178.348 822.326 151.33 804 c 1,0,0
 188.559 806.105 372.895 844.67 408 816 c 1,0,0
 399.87 774.221 447.913 706.663 290.694 720 c 1,0,0
 107.474 725.37 187.97 589.477 173.979 488.132 c 1,0,0
 256.042 450.832 288.868 409.513 416.97 492 c 1,0,0
 525.888 626.406 304.991 676.267 374.021 800.999 c 1,29,30
 403.063 854.591 474.613 771.869 533.02 762 c 1,31,32
 531.32 536.054 653.343 140.624 537.463 63.9082 c 1,26,-1
EndSplineSet
EndChar

StartChar: Q
Encoding: 81 81 23
Width: 844
VWidth: 0
Flags: HW
LayerCount: 2
Fore
SplineSet
405.1 345 m 1
 543.1 354 l 1
 629.464 260.881 762.727 148.923 792.1 33 c 1
 636.1 9 l 1
 594.83 141.363 501.142 243.852 405.1 345 c 1
180.1 219 m 1
 310.438 112.016 455.97 118.201 618.1 219 c 1
 618.1 93 l 1
 479.694 19.6318 341.841 -59.041 180.1 93 c 1
 180.1 219 l 1
180.1 738 m 1
 339.059 822.729 479.11 812.998 606.1 738 c 1
 606.1 585 l 1
 469.462 613.689 339.303 677.034 180.1 585 c 1
 180.1 738 l 1
453.1 711 m 1
 480.312 714.078 520.729 715.837 627.1 711 c 1
 812.055 426.451 726.376 280.962 630.1 90 c 1
 456.1 90 l 1
 543.562 293.602 579.854 459.889 453.1 711 c 1
153.1 729 m 1
 321.1 729 l 1
 187.877 449.487 209.663 276.75 324.1 93 c 1
 156.1 93 l 1
 102.573 263.455 -47.2266 303.131 153.1 729 c 1
EndSplineSet
EndChar

StartChar: Z
Encoding: 90 90 24
Width: 874
VWidth: 0
Flags: HW
LayerCount: 2
Fore
SplineSet
741 255 m 1
 801 255 l 1
 801 0 l 1
 741 0 l 1
 741 255 l 1
57 810 m 1
 105 810 l 1
 105 549 l 1
 57 549 l 1
 57 810 l 1
587 659 m 1
 785 659 l 1
 573.3 498.02 299.553 311.076 260 150 c 1
 89 153 l 1
 206.827 315.569 399.469 500.148 587 659 c 1
89 153 m 1
 322.761 160.66 561.453 217.987 788 153 c 1
 753.487 117.309 750.431 67.665 788 0 c 1
 585.836 43.1191 327.908 8.2627 89 0 c 1
 119.4 66.1445 105.619 110.28 89 153 c 1
86 783 m 1
 379.368 826.677 546.399 797.085 785 809 c 1
 776.264 754.662 777.653 705.354 785 659 c 1
 86 633 l 1
 95.542 684.593 121.257 738.885 86 783 c 1
EndSplineSet
EndChar

StartChar: G
Encoding: 71 71 25
Width: 787
VWidth: 0
Flags: HW
LayerCount: 2
Fore
SplineSet
668.824 672 m 24
 657.07 695.52 649.835 708.952 632.824 729 c 24
 616.73 747.967 606.421 758.659 584.824 771 c 24
 556.525 787.17 538.611 793.803 506.824 801 c 24
 475.93 807.995 457.395 804.405 425.824 807 c 24
 371.982 811.426 341.84 819.858 287.824 819 c 24
 267.105 818.671 256.255 811.278 236.854 804 c 24
 218.721 797.198 207.869 793.89 191.854 783 c 24
 178.172 773.696 171.639 766.343 161.854 753 c 24
 145.717 730.994 140.505 716.023 125.854 693 c 24
 115.922 677.393 106.145 671.002 98.8545 654 c 24
 84.8525 621.346 79.2748 601.74 71.8242 567 c 24
 65.1592 535.922 65.011 517.709 62.8242 486 c 24
 60.3271 449.797 59.1645 429.283 59.8242 393 c 24
 60.3369 364.827 63.4041 349.073 65.8242 321 c 24
 69.2539 281.213 68.3753 258.41 74.8242 219 c 24
 78.9512 193.782 81.6107 178.961 92.8242 156 c 24
 106.495 128.007 119.552 115.233 137.824 90 c 24
 144.15 81.2637 147.475 75.8307 155.824 69 c 24
 173.406 54.6143 184.29 47.5981 203.824 36 c 24
 221.82 25.3145 232.025 18.7881 251.824 12 c 24
 273.313 4.63184 286.113 -0.553988 308.824 0 c 24
 382.834 1.80566 424.441 7.9951 497.794 18 c 24
 519.82 21.0039 462.36 23.3916 440.794 18 c 24
 432.149 15.8389 452.884 9 461.794 9 c 24
 476.266 9 484.396 12.5277 497.794 18 c 24
 567.629 46.5244 615.889 48.8758 674.794 96 c 24
 709.125 123.465 712.456 155.269 722.794 198 c 24
 730.503 229.861 725.378 249.698 719.794 282 c 24
 714.752 311.162 712.713 329.696 695.824 354 c 24
 684.179 370.759 669.616 372.638 651 381 c 24
 635.46 387.98 625.38 388.32 609 393 c 17
 609 393 450.982 409.135 390 399 c 0
 297.084 383.559 335.464 290.273 575.824 279 c 9
 567.622 284.85 560.654 302.195 554.794 294 c 24
 541.704 275.692 553.918 257.988 545.794 237 c 24
 539.459 220.634 529.564 214.856 518.794 201 c 24
 513.191 193.791 511.303 188.238 503.824 183 c 24
 487.532 171.59 478.685 157.917 458.824 159 c 24
 410.358 161.644 382.568 170.969 338.824 192 c 24
 319.381 201.348 315.196 216.326 302.824 234 c 24
 290.507 251.596 285.43 262.789 275.824 282 c 24
 269.021 295.604 265.478 303.52 260.824 318 c 24
 254.919 336.37 252.338 347.026 248.824 366 c 24
 246.471 378.707 245.346 386.086 245.824 399 c 24
 246.522 417.853 246.996 428.763 251.824 447 c 24
 257.606 468.844 262.154 481.082 272.824 501 c 24
 279.899 514.207 288.012 518.883 296.824 531 c 24
 306.749 544.646 308.895 555.065 320.824 567 c 24
 335.048 581.23 343.934 589.993 362.794 597 c 24
 386.06 605.644 401.198 609.324 425.794 606 c 24
 446.535 603.197 463.511 600.229 473.794 582 c 24
 491.945 549.823 479.548 523.854 491.794 489 c 24
 495.37 478.823 502.561 474.411 512.794 471 c 24
 535.241 463.518 549.169 463.312 572.794 462 c 24
 591.521 460.96 603.527 457.675 620.794 465 c 24
 643.845 474.779 660.596 481.604 671.794 504 c 24
 690.47 541.353 693.532 567.245 692.794 609 c 24
 692.329 635.284 680.576 648.484 668.824 672 c 24
EndSplineSet
EndChar

StartChar: R
Encoding: 82 82 26
Width: 802
VWidth: 0
Flags: HW
LayerCount: 2
Fore
SplineSet
200 255 m 1
 347 297 l 1
 504.28 201.104 673.176 87.6738 753 0 c 1
 546 0 l 1
 372.347 112.47 348.645 207.251 200 255 c 1
71 461 m 1
 74.0095 273.87 331.714 351.719 611 461 c 1
 611 344 l 1
 443.001 216.057 263 216.057 71 344 c 1
 71 461 l 1
483 804 m 1
 624 789 l 1
 711.096 660.416 813.631 511.265 627 360 c 1
 568.096 285.042 539.425 337.342 503 357 c 1
 600.477 496.721 538.562 672.101 483 804 c 1
65 789 m 1
 255.783 838.201 432.886 818.604 608 789 c 1
 608 600 l 1
 436.444 717.839 276.375 720.252 65 600 c 1
 65 789 l 1
77 783 m 1
 224 783 l 1
 191.281 556.852 305.408 286.707 216 0 c 1
 69 0 l 1
 3.91936 245.084 75.7194 522.327 77 783 c 1
EndSplineSet
EndChar

StartChar: V
Encoding: 86 86 27
Width: 880
VWidth: 0
Flags: HW
LayerCount: 2
Fore
SplineSet
597 816 m 1
 867 816 l 1
 867 768 l 1
 615 774 l 1
 597 816 l 1
282 759 m 1
 39 759 l 1
 21 813 l 1
 258 813 l 1
 282 759 l 1
716.812 816 m 1
 830.127 819 l 1
 794.376 507.249 651.629 236.915 497.968 36 c 1
 383.738 -23.999 370.765 11.001 443.473 111 c 1
 472.951 335.222 576.843 584.229 716.812 816 c 1
49.8975 810 m 1
 213.383 816 l 1
 278.251 552.811 411.285 345.729 482.397 75 c 1
 425.622 34.6895 577.335 193.439 400.223 0 c 1
 230.8 225.348 47.4102 819.952 49.8975 810 c 1
EndSplineSet
EndChar

StartChar: U
Encoding: 85 85 28
Width: 859
VWidth: 0
Flags: HW
LayerCount: 2
Fore
SplineSet
468 816 m 1
 810 816 l 1
 810 774 l 1
 468 774 l 1
 468 816 l 1
0 813 m 1
 345 813 l 1
 345 768 l 1
 0 786 l 1
 0 813 l 1
114.741 303 m 1
 309.997 63.4618 534.957 138.856 729.741 300 c 1
 687.741 84 l 1
 510.115 -1.93652 362.146 -64.0527 129.741 93 c 1
 114.741 303 l 1
522.741 807 m 1
 615.106 812.391 780.801 837.293 756.741 799 c 1
 857.654 545.958 749.833 279.491 684.741 66 c 1
 531 114 l 1
 612.452 362.424 613.155 598.557 522.741 807 c 1
77.7412 816 m 1
 312.741 816 l 1
 244.454 570.705 231.489 322.874 306 117 c 1
 132.741 90 l 1
 71.6748 324.366 27.1641 589.616 77.7412 816 c 1
EndSplineSet
EndChar

StartChar: T
Encoding: 84 84 29
Width: 790
VWidth: 0
Flags: HW
LayerCount: 2
Fore
SplineSet
231 0 m 1
 252 27 l 1
 561 27 l 1
 543 0 l 1
 231 0 l 1
274.5 663 m 1
 367.085 707.312 467.207 689.509 520.5 663 c 1
 450.824 429.327 510.032 219.096 520.5 0 c 1
 274.5 0 l 1
 333.747 199.158 329.9 415.945 274.5 663 c 1
57.5 783 m 1
 732.5 783 l 1
 726 589 l 1
 567.4 681.32 387.938 728.604 78 625 c 1
 57.5 783 l 1
EndSplineSet
EndChar

StartChar: eight
Encoding: 56 56 30
Width: 646
VWidth: 0
Flags: HW
LayerCount: 2
Fore
SplineSet
450.404 314.524 m 1
 588.415 314.524 l 1
 649.871 244.199 646.428 169.544 588.415 91.248 c 1
 450.404 91.248 l 1
 491.034 175.911 518.887 260.856 450.404 314.524 c 1
429.699 689.626 m 1
 564.262 761.075 l 1
 625.721 690.751 625.729 544.648 567.714 466.351 c 1
 429.699 466.351 l 1
 439.686 509.736 496.811 575.351 429.699 689.626 c 1
77.7695 314.524 m 1
 184.728 314.524 l 1
 130.38 244.563 149.856 152.192 184.728 118.041 c 1
 77.7695 118.041 l 1
 40.9912 183.538 15.2012 249.029 77.7695 314.524 c 1
91.5703 761.075 m 1
 188.182 677.72 l 1
 156.932 611.688 163.965 547.241 188.182 481.236 c 1
 112.273 442.536 l 1
 -7.98535 507.979 -24.4404 695.55 91.5703 761.075 c 1
77.7695 213.307 m 1
 252.848 36.1387 431.315 103.441 560.814 171.626 c 1
 558.268 127.106 640.89 179.351 571.164 58.502 c 1
 430.214 11.6299 245.16 -40.9746 77.7695 79.3408 c 1
 77.7695 213.307 l 1
77.7695 335.363 m 1
 263.418 437.442 448.396 427.322 588.415 329.408 c 1
 571.164 252.007 l 1
 322.774 458.975 141.333 318.566 112.273 249.029 c 1
 77.7695 335.363 l 1
112.273 576.499 m 1
 288.374 330.585 443.826 450.477 557.364 576.499 c 1
 557.364 442.536 l 1
 462.084 359.38 1.11523 217.3 112.273 442.536 c 1
 112.273 576.499 l 1
91.5703 761.075 m 1
 316.304 881.379 436.767 813.915 564.262 761.075 c 1
 557.364 636.041 l 1
 435.715 680.412 303.438 749.126 98.4707 633.062 c 1
 91.5703 761.075 l 1
EndSplineSet
EndChar

StartChar: W
Encoding: 87 87 31
Width: 946
VWidth: 0
Flags: HW
LayerCount: 2
Fore
SplineSet
666 816 m 5
 927 816 l 5
 927 792 l 5
 666 792 l 5
 666 816 l 5
204 798 m 1
 0 798 l 1
 0 819 l 1
 204 819 l 1
 204 798 l 1
723 819 m 1
 900 825 l 1
 954.178 620.906 648.646 209.803 567.069 15 c 1
 530.52 86.3213 l 1
 613.732 277.347 635.69 573.596 723 819 c 1
390.117 649.406 m 1
 468.117 679.406 l 1
 626.746 493.83 557.497 259.271 567.069 15 c 1
 492.229 -19.2344 l 1
 438.859 233.298 489.327 382.509 390.117 649.406 c 1
473.674 668.405 m 1
 525.117 658.406 l 1
 468.685 403.488 410.56 230.002 327.771 12.9941 c 1
 251.16 -44.0625 242.458 -10.7783 291.223 84.3154 c 1
 337.916 298.482 319.014 503.236 473.674 668.405 c 1
18 822 m 1
 160.393 815.816 l 1
 280.986 624.569 276.298 292.204 317.33 50.0801 c 1
 252.933 -21.2412 l 1
 170.006 232.257 -14.5 554.568 18 822 c 1
EndSplineSet
EndChar

StartChar: X
Encoding: 88 88 32
Width: 833
VWidth: 0
Flags: HW
LayerCount: 2
Fore
SplineSet
667.25 826 m 1
 750.878 777.723 797.266 806.674 799.25 787 c 1
 494.429 514.601 356.318 301.531 184.25 0 c 1
 131.155 12.5479 76.7012 33.2354 31.25 0 c 1
 187.039 340.406 301.897 667.782 667.25 826 c 1
51.75 810 m 1
 148.399 791.562 166.868 826.678 187.25 801 c 1
 303.397 506.877 616.312 203.064 801.75 -24 c 1
 793.386 -1.5459 627.401 31.3457 547.25 0 c 1
 319.883 252.818 47.54 511.189 51.75 810 c 1
EndSplineSet
EndChar

StartChar: Y
Encoding: 89 89 33
Width: 910
VWidth: 0
Flags: HW
LayerCount: 2
Fore
SplineSet
171.5 816 m 1
 342.5 816 l 1
 344.984 660.483 399.562 496.182 447.5 333 c 1
 291.5 321 l 1
 213.841 476.059 189.959 645.314 171.5 816 c 1
825.5 825 m 1
 672.621 554.52 500.84 277.735 276.5 0 c 1
 84.5 0 l 1
 327.96 277.538 491.847 554.67 645.5 825 c 1
 825.5 825 l 1
EndSplineSet
EndChar

StartChar: exclam
Encoding: 33 33 34
Width: 451
VWidth: 0
Flags: HW
LayerCount: 2
Fore
SplineSet
92.2588 136 m 1
 201.29 170.569 267.12 146.786 342.571 136 c 1
 264.68 79.5361 322.049 32.8887 342.571 15 c 5
 251.02 0.410156 166.046 -2.35156 92.2588 15 c 5
 137.997 60.9482 139.583 121.963 92.2588 136 c 1
103.384 852 m 1
 176.873 897.035 250.282 886.616 323.659 852 c 1
 437.316 660.459 230.537 276.382 323.659 230 c 1
 214.513 181.883 160.926 208.605 103.384 230 c 1
 175.596 412.797 56.8252 689.816 103.384 852 c 1
EndSplineSet
EndChar

StartChar: quotedbl
Encoding: 34 34 35
Width: 460
VWidth: 0
Flags: HW
LayerCount: 2
Fore
SplineSet
305 855 m 5
 428 855 l 5
 364.129 777.484 380.569 654.646 428 585 c 5
 305 585 l 5
 261.082 651.753 238.271 772.508 305 855 c 5
65 858 m 5
 176 858 l 5
 138.756 760.684 149.83 642.615 176 585 c 5
 65 585 l 5
 7.45996 638.024 36.9463 773.771 65 858 c 5
EndSplineSet
EndChar

StartChar: numbersign
Encoding: 35 35 36
Width: 883
VWidth: 0
Flags: HW
LayerCount: 2
Fore
SplineSet
33.5 306 m 1
 355.667 325.75 601.621 317.712 837.5 306 c 1
 837.5 159 l 1
 577.78 218.342 317.045 250.139 33.5 159 c 1
 33.5 306 l 1
51.5 654 m 1
 302.333 562.579 575.151 594.549 849.5 654 c 1
 849.5 519 l 1
 586.558 476.233 322.344 451.26 51.5 519 c 1
 51.5 654 l 1
511.5 862 m 1
 642.5 862 l 1
 657.5 1 l 1
 624.243 -17.7666 626.479 -86.8438 526.5 1 c 1
 511.5 862 l 1
210.5 853 m 1
 320.5 853 l 1
 335.5 -22 l 1
 309.352 -39.5088 298.203 -59.2256 225.5 -22 c 1
 210.5 853 l 1
EndSplineSet
EndChar

StartChar: plus
Encoding: 43 43 37
Width: 739
VWidth: 0
Flags: HW
LayerCount: 2
Fore
SplineSet
135.454 351 m 5
 393.273 257.369 468.779 334.75 609.454 351 c 5
 647.524 289.071 651.557 244.066 609.454 222 c 5
 503.309 256.63 337.44 251.376 135.454 222 c 5
 80.5527 233.023 94.9111 284.386 135.454 351 c 5
282.454 549 m 5
 492.454 549 l 5
 385.614 444.673 376.811 135.406 492.454 6 c 5
 282.454 6 l 5
 327.836 170.449 368.031 412.861 282.454 549 c 5
EndSplineSet
EndChar

StartChar: hyphen
Encoding: 45 45 38
Width: 547
VWidth: 0
Flags: HW
LayerCount: 2
Fore
SplineSet
54.5 456 m 1
 242.302 423.017 370.157 424.921 492.5 456 c 1
 492.5 324 l 1
 358.165 352.355 215.415 359.521 54.5 324 c 1
 54.5 456 l 1
EndSplineSet
EndChar

StartChar: period
Encoding: 46 46 39
Width: 315
VWidth: 0
Flags: HW
LayerCount: 2
Fore
SplineSet
48 222 m 1
 104 197.717 209 182.214 265 221 c 1
 223.869 160.433 246.777 55.1738 267 18 c 1
 211 28.9043 106 50.3457 50 16 c 1
 57.7158 58.1572 65.917 177.008 48 222 c 1
EndSplineSet
EndChar

StartChar: colon
Encoding: 58 58 40
Width: 328
VWidth: 0
Flags: HW
LayerCount: 2
Fore
SplineSet
88.6445 701.213 m 5
 196.175 726.1 l 5
 270.343 640.165 l 5
 236.979 529.343 l 5
 129.449 504.454 l 5
 55.2812 590.39 l 5
 88.6445 701.213 l 5
81.1953 245.759 m 5
 188.726 270.646 l 5
 262.894 184.711 l 5
 229.529 73.8887 l 5
 122 49 l 5
 47.832 134.936 l 5
 81.1953 245.759 l 5
EndSplineSet
EndChar

StartChar: semicolon
Encoding: 59 59 41
Width: 418
VWidth: 0
Flags: HW
LayerCount: 2
Fore
SplineSet
198.41 143.116 m 1
 302.353 161.438 l 1
 326.277 62.8652 l 1
 314.315 -38.2354 l 1
 256.876 -121.835 201.773 -141.733 106.168 -93.8398 c 1
 137.278 -44.9854 227.98 -12.0098 189.905 55.2822 c 1
 198.41 143.116 l 1
187.645 427.213 m 5
 295.175 452.1 l 5
 369.343 366.165 l 5
 335.979 255.343 l 5
 228.449 230.454 l 5
 154.281 316.39 l 5
 187.645 427.213 l 5
EndSplineSet
EndChar

StartChar: equal
Encoding: 61 61 42
Width: 589
VWidth: 0
Flags: HW
LayerCount: 2
Fore
SplineSet
44 312 m 5
 214.106 278.314 384.067 290.443 554 312 c 5
 554 165 l 1
 394.752 193.622 227.186 200.101 44 165 c 1
 44 312 l 5
35 612 m 1
 241.636 573.145 397.828 587.789 545 612 c 1
 545 459 l 1
 370.262 497.785 202.017 483.418 35 459 c 1
 35 612 l 1
EndSplineSet
EndChar

StartChar: six
Encoding: 54 54 43
Width: 657
VWidth: 0
Flags: HW
LayerCount: 2
Fore
SplineSet
76.71 687.323 m 1,5,-1
252.3 35.8398 m 1,18,19
96.5342 727.652 m 1,26,-1
 112.674 817.565 458.868 816.172 499.281 798.81 c 1,0,0
 575.707 774.42 580.779 722.431 599.8 675.835 c 1,27,28
 599.8 675.835 488.752 477.039 481.332 640.699 c 1,0,0
 439.833 746.932 216.144 693.027 244.396 687.547 c 1,0,0
 179.776 596.779 144.797 534.918 214.755 444.524 c 1,0,0
 421.49 518.582 544.897 460.311 581.851 435.741 c 1,0,0
 601.91 382.418 609 351 606.98 336.19 c 1,0,0
 674.396 79.4854 477.574 5.00781 506.648 22.8945 c 1,0,0
 460.097 6.83411 106.881 -23.7764 273.114 17.0391 c 1,0,0
 242.274 46.7432 61.5781 151.236 348.025 104.88 c 1,0,0
 523.775 99.6377 472.077 190.818 480 315 c 1,0,0
 464.557 367.04 332.847 435.546 221.141 327.406 c 5,0,0
 116.662 196.227 349.331 140.778 283.114 19.0391 c 1,29,30
 253.133 -16.936 146.858 4.33601 110.798 48.3193 c 1,31,32
 38.2215 215.377 -13.5596 646.633 96.5342 727.652 c 1,26,-1
EndSplineSet
EndChar

StartChar: bar
Encoding: 124 124 44
Width: 211
VWidth: 0
Flags: HWO
LayerCount: 2
Fore
SplineSet
55.5 360 m 1
 154.5 360 l 5
 154.5 465 l 5
 55.5 465 l 1
 55.5 360 l 1
55.5 816 m 1
 155.5 816 l 5
 155.5 0 l 5
 55.5 0 l 1
 55.5 816 l 1
EndSplineSet
EndChar

StartChar: quotesingle
Encoding: 39 39 45
Width: 316
VWidth: 0
Flags: HW
LayerCount: 2
Fore
SplineSet
104.041 852 m 5
 233.041 852 l 5
 158.686 756.314 189.334 702.549 233.041 654 c 5
 104.041 654 l 5
 90.8408 712.481 64.0576 763.22 104.041 852 c 5
EndSplineSet
EndChar

StartChar: percent
Encoding: 37 37 46
Width: 844
VWidth: 0
Flags: HW
LayerCount: 2
Fore
SplineSet
603.59 89.0176 m 1
 704.278 53.6465 l 1
 785.328 122.952 l 1
 765.689 227.629 l 1
 665 263 l 1
 583.95 193.694 l 1
 603.59 89.0176 l 1
88.5898 543.018 m 1
 189.278 507.646 l 1
 270.328 576.952 l 1
 250.689 681.629 l 1
 150 717 l 1
 68.9502 647.694 l 1
 88.5898 543.018 l 1
581.266 253.945 m 1
 709.1 303.92 l 1
 812 206 l 1
 787.066 58.1055 l 1
 659.232 8.13086 l 1
 556.332 106.051 l 1
 581.266 253.945 l 1
69.1621 710.56 m 1
 196.996 760.534 l 1
 299.896 662.614 l 1
 274.963 514.72 l 1
 147.129 464.745 l 1
 44.2285 562.665 l 1
 69.1621 710.56 l 1
92 12 m 1
 264.826 294.062 509.393 534.625 762 801 c 1
 790.562 744.624 701.369 715.179 807 702 c 5
 550.893 488.203 412.105 293.147 185 0 c 5
 77.8047 -11.9414 179.142 56.5479 92 12 c 1
EndSplineSet
EndChar

StartChar: parenleft
Encoding: 40 40 47
Width: 454
VWidth: 0
Flags: HW
LayerCount: 2
Fore
SplineSet
241.764 11 m 5
 382.764 11 l 5
 382.764 -40 l 5
 330.618 -81.0898 286.098 -61.2959 241.764 -40 c 5
 241.764 11 l 5
181.764 850 m 1
 256.947 876.835 334.248 873.332 370.764 815 c 1
 370.764 773 l 1
 181.764 808 l 1
 181.764 850 l 1
163.764 835 m 1
 304.764 841 l 1
 175.563 624.155 156.042 192.656 358.764 -40 c 5
 217.764 -46 l 5
 82.2852 134.279 -4.02734 559.09 163.764 835 c 1
EndSplineSet
EndChar

StartChar: parenright
Encoding: 41 41 48
Width: 469
VWidth: 0
Flags: HW
LayerCount: 2
Fore
SplineSet
219.736 24 m 5
 78.7363 24 l 5
 78.7363 -27 l 5
 130.883 -68.0898 175.402 -48.2959 219.736 -27 c 5
 219.736 24 l 5
279.736 838 m 1
 204.553 864.835 127.252 896.332 90.7363 838 c 1
 90.7363 796 l 1
 279.736 796 l 1
 279.736 838 l 1
297.736 823 m 1
 156.736 829 l 1
 285.938 612.155 305.458 205.656 102.736 -27 c 5
 243.736 -33 l 5
 379.215 147.279 465.527 547.09 297.736 823 c 1
EndSplineSet
EndChar

StartChar: comma
Encoding: 44 44 49
Width: 413
VWidth: 0
Flags: HW
LayerCount: 2
Fore
SplineSet
186.398 144.347 m 5
 303.7 165.44 l 5
 330.7 51.9502 l 5
 317.2 -64.4502 l 5
 252.379 -160.701 190.194 -183.611 82.2998 -128.47 c 5
 117.41 -72.2217 219.77 -34.2559 176.8 43.2197 c 5
 186.398 144.347 l 5
EndSplineSet
EndChar

StartChar: less
Encoding: 60 60 51
Width: 751
VWidth: 0
Flags: HW
LayerCount: 2
Fore
SplineSet
214.648 581.317 m 5
 667.648 768.353 l 5
 697.648 690 l 5
 154.648 470.107 l 5
 210.722 434.723 l 5
 308.583 362.599 620.743 151.906 649.648 108.675 c 5
 635.632 29.9131 565.804 50.4932 460.648 133.95 c 5
 415.509 149.523 328.295 227.473 241.648 290.655 c 5
 236.6 301.385 116.433 369.558 54.2061 482.745 c 5
 46.8779 502.964 85.5098 534.049 214.648 581.317 c 5
EndSplineSet
EndChar

StartChar: greater
Encoding: 62 62 52
Width: 700
VWidth: 0
Flags: HW
LayerCount: 2
Fore
SplineSet
510 562.965 m 1
 57 750 l 1
 27 671.647 l 1
 570 451.755 l 1
 513.927 416.37 l 1
 416.065 344.246 103.905 133.554 75 90.3223 c 1
 89.0166 11.5605 158.845 32.1406 264 115.598 c 1
 309.14 131.171 396.354 209.12 483 272.303 c 1
 488.049 283.032 608.216 351.205 670.442 464.393 c 1
 677.771 484.611 639.139 515.696 510 562.965 c 1
EndSplineSet
EndChar

StartChar: S
Encoding: 83 83 53
Width: 727
VWidth: 0
Flags: HW
LayerCount: 2
Fore
SplineSet
92.0938 733.043 m 5
 295.722 843.947 440.375 837.706 643.835 739.754 c 5
 658.094 690.988 700.371 657.426 623.98 561.76 c 5
 616.94 561.689 554.685 568.215 536.959 607.78 c 5
 441.821 678.082 320.647 687.837 220.53 605.796 c 5
 123.187 536.92 214.409 494.489 241.164 422.292 c 5
 307.917 538.76 674.108 435.829 656.542 402.906 c 5
 739.338 275.297 677.93 181.36 633.451 68.3096 c 5
 602.813 32.6357 525.018 -5.13086 471.345 -1.36621 c 5
 13.2432 -42.833 8.9834 310.477 133.687 217.673 c 5
 266.428 132.73 296.707 120.694 412.689 119.882 c 5
 415.173 132.156 466.837 111.673 470.774 126.091 c 5
 551.439 247.6 560.222 237.554 536.82 280.88 c 5
 473.377 410.382 356.607 263.984 281.664 277.649 c 5
 -10.1025 310.305 37.875 524.448 30.3047 620.18 c 5
 21.1426 697.656 102.893 723.953 92.0938 733.043 c 5
EndSplineSet
EndChar

StartChar: sterling
Encoding: 163 163 54
Width: 683
VWidth: 0
Flags: HW
LayerCount: 2
Fore
SplineSet
446.811 167.175 m 5
 530.945 277.181 711.266 407.798 382.986 670.245 c 5
 213.413 693.824 173.097 670.48 60.6729 673.312 c 5
 456.379 518.462 361.974 297.592 54.29 167.175 c 5
 190.825 45.3135 412.116 117.17 446.811 167.175 c 5
660.621 164.107 m 5
 412.48 96.0127 236.337 166.438 22.3789 164.107 c 5
 31.0605 109.546 106.171 44.3291 22.3789 4.59766 c 5
 660.621 4.59766 l 5
 660.621 164.107 l 5
651.048 802.146 m 5
 443.8 818.988 242.583 826.113 60.6729 802.146 c 5
 80.2695 756.845 106.598 710.731 60.6729 673.312 c 5
 257.465 673.346 454.257 719.458 651.048 673.312 c 5
 602.241 726.639 625.038 764.734 651.048 802.146 c 5
EndSplineSet
EndChar

StartChar: uni0080
Encoding: 128 128 55
Width: 542
VWidth: 0
Flags: HW
LayerCount: 2
Fore
SplineSet
179.826 167.175 m 5
 118.969 277.181 -11.4619 407.798 225.992 670.245 c 5
 348.649 693.824 377.811 670.48 459.13 673.312 c 5
 172.905 518.462 241.191 297.592 463.747 167.175 c 5
 364.987 45.3135 204.921 117.17 179.826 167.175 c 5
25.1709 164.107 m 5
 204.658 96.0127 332.067 166.438 486.829 164.107 c 5
 480.549 109.546 426.22 44.3291 486.829 4.59766 c 5
 25.1709 4.59766 l 5
 25.1709 164.107 l 5
32.0957 802.147 m 5
 182.004 818.988 327.549 826.113 459.13 802.147 c 5
 444.955 756.845 425.911 710.731 459.13 673.312 c 5
 316.785 673.346 174.44 719.458 32.0957 673.312 c 5
 67.3984 726.639 50.9092 764.734 32.0957 802.147 c 5
EndSplineSet
EndChar

StartChar: dollar
Encoding: 36 36 56
Width: 734
VWidth: 0
Flags: HW
LayerCount: 2
Fore
SplineSet
362 885 m 1
 458 885 l 1
 380.126 576.134 429.039 249.141 458 -75 c 1
 362 -75 l 1
 348.592 247.984 308.528 576.9 362 885 c 1
115.322 732.03 m 1
 314.47 840.494 482.94 831.39 681.923 735.593 c 1
 695.868 687.9 733.215 651.076 658.505 557.516 c 1
 528.564 515.14 526.155 541.626 573.398 602.523 c 1
 480.354 671.278 345.847 683.818 247.932 603.583 c 1
 152.731 536.223 241.946 494.726 268.112 424.117 c 1
 333.396 538.021 695.53 441.356 678.351 409.157 c 1
 759.324 284.356 693.268 192.487 649.768 81.9238 c 1
 619.804 47.0352 538.72 16.0996 486.229 19.7812 c 1
 38.2068 -20.7735 14.1982 297.874 136.157 207.112 c 1
 252.676 288.042 336.868 64.1687 409.02 111.473 c 1
 411.449 123.477 479.819 125.333 483.671 139.434 c 1
 562.56 258.269 568.149 252.443 545.263 294.816 c 1
 490.624 425.039 377.804 280.565 297.722 290.657 c 1
 12.375 322.594 62.2969 528.025 54.8936 621.65 c 1
 45.9326 697.422 125.884 723.14 115.322 732.03 c 1
EndSplineSet
EndChar

StartChar: backslash
Encoding: 92 92 57
Width: 583
VWidth: 0
Flags: HW
LayerCount: 2
Fore
SplineSet
70 755 m 1
 193 758 l 1
 513 55 l 1
 393 46 l 1
 70 755 l 1
EndSplineSet
EndChar

StartChar: bracketleft
Encoding: 91 91 58
Width: 499
VWidth: 0
Flags: HW
LayerCount: 2
Fore
SplineSet
149 854 m 1
 266.638 878.96 356.223 879.556 426 855 c 1
 426 781 l 1
 212.191 763 l 1
 299.028 581.04 280.205 243.684 212.86 61 c 5
 423 37 l 4
 423 -38 l 5
 335.161 -47.8936 250.113 -56.8604 147 -38 c 5
 103.526 195.283 17.5068 560.27 149 854 c 1
EndSplineSet
EndChar

StartChar: bracketright
Encoding: 93 93 59
Width: 499
VWidth: 0
Flags: HW
LayerCount: 2
Fore
SplineSet
354 841 m 1
 236.362 865.96 146.777 866.556 77 842 c 1
 77 768 l 1
 290.809 750 l 1
 203.972 568.04 211.795 245.684 279.14 63 c 5
 69 39 l 4
 69 -36 l 5
 156.839 -45.8936 241.887 -54.8604 345 -36 c 5
 388.474 197.283 485.493 547.27 354 841 c 1
EndSplineSet
EndChar

StartChar: slash
Encoding: 47 47 60
Width: 583
VWidth: 0
Flags: HW
LayerCount: 2
Fore
SplineSet
70 50 m 5
 193 47 l 5
 513 750 l 5
 393 759 l 5
 70 50 l 5
EndSplineSet
EndChar

StartChar: uni0081
Encoding: 129 129 61
Width: 662
VWidth: 0
Flags: HW
LayerCount: 2
Fore
SplineSet
439.378 601.879 m 1,1,2
237.237 158.21 m 1,4,5
136.165 218.573 m 1,6,7
 254.845 110.942 387.36 117.164 534.986 218.573 c 1,8,-1
 534.986 91.8105 l 1,9,10
 408.962 18 283.438 -61.1484 136.165 91.8105 c 1,11,-1
 136.165 218.573 l 1,6,7
136.165 740.715 m 1,12,13
 280.907 825.955 408.432 816.166 524.06 740.715 c 1,14,-1
 524.06 586.789 l 1,15,16
 399.643 615.652 281.127 679.379 136.165 586.789 c 1,17,-1
 136.165 740.715 l 1,12,13
384.746 713.552 m 1,18,19
 409.527 716.648 446.329 718.417 543.181 713.552 c 1,20,21
 711.594 427.28 633.578 280.91 545.912 88.7939 c 1,22,-1
 387.477 88.7939 l 1,23,24
 467.117 293.627 500.165 460.92 384.746 713.552 c 1,18,19
111.582 731.66 m 1,25,-1
 264.554 731.66 l 1,26,27
 143.248 450.455 163.083 276.674 267.284 91.8105 c 1,28,-1
 114.312 91.8105 l 1,29,30
 65.5732 263.298 -70.8252 303.214 111.582 731.66 c 1,25,-1
EndSplineSet
EndChar

StartChar: underscore
Encoding: 95 95 62
Width: 748
VWidth: 0
Flags: HW
LayerCount: 2
Fore
SplineSet
60 56 m 5
 688 56 l 5
 688 24 l 5
 60 24 l 5
 60 56 l 5
EndSplineSet
EndChar

StartChar: asciicircum
Encoding: 94 94 63
Width: 432
VWidth: 0
Flags: HW
LayerCount: 2
Fore
SplineSet
78 716 m 1
 164.825 927.824 256.494 941.537 354 716 c 1
 354 584 l 1
 276.474 776.81 187.476 816.793 78 584 c 1
 78 716 l 1
EndSplineSet
EndChar

StartChar: grave
Encoding: 96 96 64
Width: 436
VWidth: 0
Flags: HW
LayerCount: 2
Fore
SplineSet
124 876 m 1
 252 836 l 1
 312 700 l 1
 188 776 l 1
 124 876 l 1
EndSplineSet
EndChar

StartChar: uni0082
Encoding: 130 130 65
Width: 721
VWidth: 0
Flags: HW
LayerCount: 2
Fore
SplineSet
59.793 810 m 1
 84.8984 818.463 161.516 816.901 226.207 813 c 5
 252.889 648.053 216.018 322.327 234.188 393 c 1
 235.25 386.473 210.578 411.133 212.207 405 c 1
 661.207 814 l 1
 667.207 601 l 1
 184.207 199 l 0
 254.207 441 l 1
 656.207 169 l 1
 654.477 139.444 656.271 32.4062 657.207 4 c 1
 210.885 297 l 0
 218.793 15 l 1
 150.145 -7.95312 98.7988 -1.80762 53.793 15 c 1
 59.793 810 l 1
EndSplineSet
EndChar

StartChar: asciitilde
Encoding: 126 126 66
Width: 824
VWidth: 0
Flags: HW
LayerCount: 2
Fore
SplineSet
400 488 m 1
 519.084 396.386 628.769 367.406 716 488 c 1
 716 304 l 1
 624.424 221.547 523.442 195.466 400 304 c 1
 400 488 l 1
116 488 m 1
 210.667 571.198 305.333 615.933 400 488 c 1
 400 316 l 1
 322.831 467.098 225.236 441.813 116 316 c 1
 116 488 l 1
EndSplineSet
EndChar

StartChar: uni008A
Encoding: 138 138 67
Width: 615
VWidth: 0
Flags: HW
LayerCount: 2
Fore
SplineSet
449.409 400 m 4
 440.989 238.108 419.958 112 298.43 112 c 4
 176.9 112 125.197 242.108 133.617 404 c 4
 142.038 565.891 194.444 680 315.973 680 c 4
 437.501 680 457.83 561.891 449.409 400 c 4
37.6172 404 m 4
 25.6143 173.22 120.203 0 292.604 0 c 4
 465.004 0 545.406 169.22 557.409 400 c 4
 569.413 630.78 499.863 824 327.463 824 c 4
 155.062 824 49.6211 634.78 37.6172 404 c 4
EndSplineSet
EndChar

StartChar: uni0085
Encoding: 133 133 68
Width: 615
VWidth: 0
Flags: HW
LayerCount: 2
Fore
SplineSet
459.5 400 m 4
 459.5 238.108 445.028 112 323.5 112 c 4
 201.971 112 143.5 242.108 143.5 404 c 4
 143.5 565.891 189.971 680 311.5 680 c 4
 433.028 680 459.5 561.891 459.5 400 c 4
47.5 404 m 4
 47.5 173.22 151.099 0 323.5 0 c 4
 495.9 0 567.5 169.22 567.5 400 c 4
 567.5 630.78 487.9 824 315.5 824 c 4
 143.099 824 47.5 634.78 47.5 404 c 4
EndSplineSet
EndChar

StartChar: copyright
Encoding: 169 169 69
Width: 517
VWidth: 0
Flags: HW
LayerCount: 2
Fore
SplineSet
366.5 555 m 0
 366.5 617.928 378.428 615 315.5 615 c 0
 252.572 615 204.5 617.928 204.5 555 c 0
 204.5 492.072 258.572 489 321.5 489 c 0
 384.428 489 366.5 492.072 366.5 555 c 0
138.5 555 m 0
 138.5 617.928 189.572 669 252.5 669 c 0
 315.428 669 366.5 617.928 366.5 555 c 0
 366.5 492.072 315.428 441 252.5 441 c 0
 189.572 441 138.5 492.072 138.5 555 c 0
32.5225 547.452 m 0
 32.5225 417.882 133.139 312.725 257.112 312.725 c 0
 381.085 312.725 481.701 417.882 481.701 547.452 c 0
 481.701 677.022 381.085 782.18 257.112 782.18 c 0
 133.139 782.18 32.5225 677.022 32.5225 547.452 c 0
0.5 551 m 0
 0.5 696.729 116.084 815 258.5 815 c 0
 400.916 815 516.5 696.729 516.5 551 c 0
 516.5 405.271 400.916 287 258.5 287 c 0
 116.084 287 0.5 405.271 0.5 551 c 0
EndSplineSet
EndChar

StartChar: asterisk
Encoding: 42 42 70
Width: 1024
VWidth: 0
Flags: H
LayerCount: 2
Fore
SplineSet
636 600 m 4
 636 634.776 654.816 663 678 663 c 4
 701.184 663 720 634.776 720 600 c 4
 720 565.224 701.184 537 678 537 c 4
 654.816 537 636 565.224 636 600 c 4
EndSplineSet
EndChar

StartChar: uni008B
Encoding: 139 139 71
Width: 727
VWidth: 0
Flags: HW
LayerCount: 2
Fore
SplineSet
85 186 m 1
 177.881 105.48 333.109 130.292 503.9 162 c 1
 474.497 33 l 1
 343.151 3 203.59 -2.30566 77.0605 51 c 1
 85 186 l 1
46 396 m 1
 210 351 l 1
 72 201 139.042 172.027 225 84 c 1
 64 60 l 1
 29.4238 166.851 -23.4932 325.062 46 396 c 1
199.325 795 m 1
 402.23 838.479 546.804 817.376 699.247 777 c 1
 678.88 780.432 689.786 649.323 673.625 636 c 0
 656.975 622.274 612.308 725.761 524.502 690 c 1
 544.977 621.614 521.321 590.895 531.039 555 c 1
 511.67 370.986 516.4 214.79 490.771 102 c 1
 328.021 102 l 1
 409.233 148.705 381.473 399.271 389.975 582 c 1
 374.328 614.081 428.3 701.013 304.416 706 c 1
 252.236 715.869 205.198 641.963 180.725 666 c 0
 161.231 685.146 176.082 790.422 199.325 795 c 1
EndSplineSet
EndChar

StartChar: uni008C
Encoding: 140 140 72
Width: 880
VWidth: 0
Flags: HW
LayerCount: 2
Fore
SplineSet
120 183 m 1
 212.881 102.48 373.625 127.292 594 159 c 1
 556.061 30 l 1
 386.583 0 238.59 -5.30566 112.061 48 c 1
 120 183 l 1
81 393 m 1
 279 348 l 1
 141 198 208.042 169.027 294 81 c 1
 99 57 l 1
 64.4238 163.851 11.5068 322.062 81 393 c 1
201 792 m 1
 439.533 882.463 642.687 827.847 846.061 774 c 1
 819.78 777.432 833.854 646.323 813 633 c 0
 791.516 619.274 733.881 722.761 620.583 687 c 1
 647.002 618.614 616.479 587.895 629.019 552 c 1
 604.025 367.986 610.13 211.79 577.061 99 c 1
 367.061 99 l 5
 471.85 145.705 436.029 396.271 447 579 c 5
 426.811 611.081 496.451 698.013 336.602 703 c 1
 269.272 712.869 208.578 638.963 177 663 c 0
 151.848 682.146 171.009 787.422 201 792 c 1
EndSplineSet
EndChar

StartChar: c
Encoding: 99 99 73
Width: 655
VWidth: 0
Flags: HW
LayerCount: 2
Fore
SplineSet
581.651 502.53 m 24
 569.547 519.389 564.347 530.418 549.557 544.979 c 24
 534.826 559.48 525.419 567.352 506.763 576.256 c 24
 481.058 588.525 465.216 593.302 437.227 598.595 c 24
 409.502 603.838 393.165 601.13 365.014 603.062 c 24
 317.021 606.358 290.09 612.639 241.987 612 c 24
 223.74 611.758 213.963 606.285 196.549 600.828 c 24
 180.524 595.807 171.032 593.484 156.43 585.19 c 24
 144.613 578.478 139.22 572.535 129.686 562.85 c 24
 113.42 546.324 104.928 536.29 90.46 518.169 c 24
 77.7646 502.268 69.5498 493.754 60.1221 475.722 c 24
 50.2393 456.821 46.3662 445.08 41.4004 424.338 c 24
 35.874 401.259 35.3281 387.67 33.376 364.019 c 24
 31.1514 337.081 30.1133 321.786 30.7021 294.763 c 24
 31.1592 273.754 33.8936 262.05 36.0508 241.146 c 24
 39.1084 211.515 34.2773 193.319 44.0742 165.188 c 24
 51.5645 143.681 64.8408 136.232 78.8428 118.271 c 24
 94.0547 98.7568 102.753 87.8164 118.96 69.1211 c 24
 124.685 62.5186 127.794 58.4141 135.008 53.4834 c 24
 150.896 42.624 160.559 37.459 177.799 28.9082 c 24
 194.002 20.8721 203.204 16.0156 220.591 11.0361 c 24
 239.937 5.49609 251.29 1.68945 271.408 2.09961 c 24
 337.305 3.44238 374.39 8.04297 439.875 15.5049 c 24
 459.566 17.748 408.459 19.5566 389.059 15.5049 c 24
 381.468 13.9189 400.143 10.1455 407.78 8.80176 c 24
 420.138 6.62793 427.838 3.02734 439.875 6.56738 c 24
 502.788 25.0713 545.833 24.4893 597.672 64.6533 c 24
 625.113 85.9141 615.205 116.079 624.417 149.548 c 24
 624.8 150.938 622.558 150.912 621.742 152.103 c 24
 612.107 166.167 611.624 178.795 597.672 188.591 c 24
 585.53 197.115 574.52 191.313 560.228 195.293 c 24
 549.338 198.325 544.089 210.377 533.483 206.465 c 24
 513.152 198.966 504.149 187.628 491.583 169.974 c 24
 487.329 163.998 501.451 152.787 494.257 151.356 c 24
 486.874 149.889 493.466 170.995 486.233 168.91 c 24
 472.732 165.018 471.734 152.39 462.163 142.103 c 24
 457.138 136.701 454.426 133.489 448.817 128.696 c 24
 438.763 120.104 435.284 107.252 422.072 107.846 c 24
 354.044 110.904 258.048 95.9307 250.025 137.634 c 0
 246.9 153.866 239.244 158.899 231.303 171.889 c 24
 222.537 186.229 215.863 193.213 207.232 207.633 c 24
 201.231 217.658 198.056 223.537 193.86 234.442 c 24
 188.635 248.023 188.205 256.538 183.162 270.188 c 24
 179.489 280.128 172.662 284.223 171.572 294.763 c 24
 170.122 308.783 175.96 316.444 176.922 330.507 c 24
 178.053 347.022 172.734 356.938 176.922 372.954 c 24
 179.688 383.532 187.104 386.698 193.86 395.295 c 24
 209.704 415.453 214.117 431.621 234.869 446.679 c 24
 255.256 461.472 270.49 465.76 295.466 469.02 c 24
 338.211 474.601 363.18 474.012 405.997 469.02 c 24
 423.962 466.926 434.392 462.092 448.79 451.147 c 24
 458.827 443.518 457.449 433.121 465.729 423.615 c 24
 471.628 416.844 477.619 416.038 484.45 410.21 c 24
 494.002 402.061 495.62 391.528 507.63 387.868 c 24
 523.615 382.996 534.67 384.521 550.421 390.103 c 24
 570.254 397.131 581.269 404.015 595.889 419.146 c 24
 606.889 430.531 616.382 440.009 613.717 455.614 c 24
 609.987 477.461 594.576 484.527 581.651 502.53 c 24
EndSplineSet
EndChar

StartChar: o
Encoding: 111 111 74
Width: 547
VWidth: 0
Flags: HW
LayerCount: 2
Fore
SplineSet
117.055 165.797 m 1
 212.611 85.2393 319.307 90.3975 438.171 165.797 c 1
 438.171 79.1553 l 1
 336.701 24.8252 235.637 -33.4336 117.055 79.1553 c 1
 117.055 165.797 l 1
117.055 569.378 m 1
 233.595 632.121 336.273 624.916 429.373 569.378 c 1
 429.373 492.364 l 1
 329.199 513.609 233.773 560.518 117.055 492.364 c 1
 117.055 569.378 l 1
340.663 549.384 m 1
 360.616 551.664 351.39 572.961 429.373 569.378 c 1
 564.972 358.665 517.555 218.345 446.968 76.9346 c 1
 342.861 76.9346 l 1
 405.814 230.916 432.636 366.057 340.663 549.384 c 1
105.307 570.119 m 1
 218.961 562.713 l 1
 121.292 355.729 137.263 215.226 221.161 79.1553 c 1
 107.505 79.1553 l 1
 68.2637 205.381 -41.5615 254.756 105.307 570.119 c 1
EndSplineSet
EndChar

StartChar: s
Encoding: 115 115 75
Width: 544
VWidth: 0
Flags: HW
LayerCount: 2
Fore
SplineSet
72.3623 556.95 m 1
 222.146 639.708 328.548 635.051 478.206 561.959 c 1
 488.694 525.569 519.792 500.525 463.602 429.139 c 1
 458.424 429.087 412.63 433.957 399.591 463.48 c 1
 329.611 515.939 240.479 523.219 166.836 462 c 1
 95.2334 410.604 162.333 378.942 182.015 325.068 c 1
 231.115 411.978 500.474 335.17 487.553 310.603 c 1
 548.455 215.381 503.285 145.286 470.567 60.9268 c 1
 448.031 34.3076 390.808 6.12598 351.328 8.93457 c 1
 14.3623 -22.0078 11.2285 241.632 102.957 172.382 c 1
 200.598 108.998 222.87 100.017 308.183 99.4102 c 1
 310.01 108.569 348.012 93.2842 350.908 104.043 c 1
 410.242 194.713 416.703 187.217 399.489 219.547 c 1
 352.823 316.181 266.93 206.939 211.804 217.137 c 1
 -2.80957 241.504 32.4805 401.298 26.9121 472.732 c 1
 20.1729 530.546 80.3057 550.168 72.3623 556.95 c 1
EndSplineSet
EndChar

StartChar: v
Encoding: 118 118 76
Width: 550
VWidth: 0
Flags: HW
LayerCount: 2
Fore
SplineSet
447.274 607 m 1
 471.83 606.304 496.385 608.215 520.939 609.334 c 1
 497.699 366.697 404.899 188.296 305.007 31.9229 c 1
 230.746 -14.7754 222.312 12.4658 269.58 90.2949 c 1
 288.742 264.809 356.281 426.61 447.274 607 c 1
13.7188 602.329 m 1
 120 607 l 1
 162.17 402.158 248.655 272.985 294.883 62.2764 c 1
 257.975 30.9033 356.602 154.458 241.463 3.9043 c 1
 131.322 179.293 12.1025 610.074 13.7188 602.329 c 1
EndSplineSet
EndChar

StartChar: w
Encoding: 119 119 77
Width: 640
VWidth: 0
Flags: HW
LayerCount: 2
Fore
SplineSet
497.758 606.762 m 1
 616.971 611.275 l 1
 653.459 457.753 447.68 180.517 392.737 33.9834 c 1
 368.12 87.6318 l 1
 424.164 231.324 438.953 422.166 497.758 606.762 c 1
273.557 479.191 m 1
 326.091 501.758 l 1
 432.93 362.165 386.29 217.727 392.737 33.9834 c 1
 342.33 8.23145 l 1
 306.385 198.19 340.377 278.428 273.557 479.191 c 1
329.833 493.481 m 1
 364.48 485.961 l 1
 326.474 294.209 287.325 195.71 231.566 32.4756 c 1
 179.968 -10.4443 174.106 14.5918 206.95 86.123 c 1
 238.398 247.222 225.668 369.239 329.833 493.481 c 1
22.9307 609.018 m 1
 118.834 604.366 l 1
 200.056 460.508 207.327 223.006 234.962 40.877 c 1
 140.252 8.73633 l 1
 68.1855 223.592 1.04199 407.853 22.9307 609.018 c 1
EndSplineSet
EndChar

StartChar: x
Encoding: 120 120 78
Width: 593
VWidth: 0
Flags: HW
LayerCount: 2
Fore
SplineSet
466.933 607.455 m 1
 526.528 572.23 559.586 593.354 561 579 c 1
 343.777 380.248 245.356 224.786 122.737 4.78027 c 1
 84.9014 13.9346 46.0957 29.0303 13.7061 4.78027 c 1
 124.725 253.15 206.575 492.015 466.933 607.455 c 1
28.3154 595.781 m 1
 97.1895 582.327 110.351 607.949 124.875 589.214 c 1
 207.644 374.612 430.634 152.941 562.781 -12.7314 c 1
 556.82 3.65234 438.536 27.6504 381.419 4.78027 c 1
 219.393 189.243 25.3154 377.76 28.3154 595.781 c 1
EndSplineSet
EndChar

StartChar: y
Encoding: 121 121 79
Width: 664
VWidth: 0
Flags: HW
LayerCount: 2
Fore
SplineSet
83.0186 598.395 m 1
 227.605 598.395 l 1
 229.707 466.987 275.854 214.157 316.388 76.2725 c 1
 184.484 66.1328 l 1
 118.819 197.154 98.627 454.17 83.0186 598.395 c 1
636 606 m 1
 506.735 377.451 361.488 29.5752 171.8 -205.104 c 1
 9.45703 -205.104 l 1
 215.312 29.4082 353.885 377.578 483.804 606 c 1
 636 606 l 1
EndSplineSet
EndChar

StartChar: z
Encoding: 122 122 80
Width: 578
VWidth: 0
Flags: HW
LayerCount: 2
Fore
SplineSet
398.614 494.421 m 1
 554 494.421 l 1
 387.863 378.967 173.033 239.496 141.995 123.974 c 1
 7.79883 122.529 l 1
 100.266 239.123 251.445 380.494 398.614 494.421 c 1
7.79883 122.529 m 1
 556.353 122.529 l 1
 529.269 96.9307 526.871 61.3271 556.353 12.7979 c 1
 411.029 7.04492 204.593 -6.88672 7.79883 12.7979 c 1
 31.6562 60.2354 20.8408 91.8896 7.79883 122.529 c 1
5.44531 583.352 m 1
 235.67 614.677 366.752 593.454 554 602 c 1
 547.145 563.028 548.233 527.665 554 494.421 c 1
 5.44531 475.773 l 1
 12.9326 512.775 33.1123 551.714 5.44531 583.352 c 1
EndSplineSet
EndChar

StartChar: p
Encoding: 112 112 81
Width: 522
VWidth: 0
Flags: HW
LayerCount: 2
Fore
SplineSet
36.3506 251.315 m 1
 163.005 115.141 342.017 146.208 458.01 251.315 c 1
 458.01 128.108 l 1
 342.269 -40.873 163.272 -40.7979 36.3506 128.108 c 1
 36.3506 251.315 l 1
383.669 497.65 m 1
 458.011 497.65 l 1
 498.786 355.632 502.903 366.041 458.01 215.481 c 1
 381 198 l 5
 425.796 349.19 413.099 354.92 383.669 497.65 c 1
32.332 473.662 m 1
 108.062 625.23 342.974 636.882 456 544 c 1
 456 350.483 l 1
 351.154 465.659 184.258 565.802 32.332 350.483 c 1
 32.332 473.662 l 1
55.5781 534.507 m 1
 144.651 460.857 l 1
 109.461 195.371 114.497 -35.7207 161.422 -193.987 c 1
 129.738 -209.516 66.498 -211.953 47.0732 -177.407 c 1
 33.5518 -4.51465 11.5234 255.488 55.5781 534.507 c 1
EndSplineSet
EndChar

StartChar: q
Encoding: 113 113 82
Width: 522
VWidth: 0
Flags: HW
LayerCount: 2
Fore
SplineSet
476.952 251.315 m 1
 350.298 115.141 170.286 146.208 54.293 251.315 c 1
 54.293 128.108 l 1
 170.034 -40.873 350.03 -40.7979 476.952 128.108 c 1
 476.952 251.315 l 1
144.634 497.65 m 1
 54.292 497.65 l 1
 13.5166 355.632 9.39941 366.041 54.293 215.481 c 1
 144 195 l 5
 99.2041 346.19 115.204 354.92 144.634 497.65 c 1
480.971 484.662 m 1
 405.24 636.23 169.329 635.882 56.3027 543 c 1
 56.3027 350.483 l 1
 161.148 465.659 329.045 565.802 480.971 350.483 c 1
 480.971 484.662 l 1
457.725 534.507 m 1
 368.651 460.857 l 1
 403.842 195.371 398.806 -35.7207 351.88 -193.987 c 1
 383.564 -209.516 446.805 -211.953 466.229 -177.407 c 1
 479.751 -4.51465 501.779 255.488 457.725 534.507 c 1
EndSplineSet
EndChar

StartChar: t
Encoding: 116 116 83
Width: 535
VWidth: 0
Flags: HWO
LayerCount: 2
Fore
SplineSet
19 651 m 1
 394 662 l 1
 394 589 l 1
 19 571 l 1
 19 651 l 1
142 156 m 1
 264.472 110.216 392.672 122.353 523 156 c 1
 523 39 l 1
 406.104 5.34766 282.748 -6.79102 142 39 c 1
 142 156 l 1
136 747 m 1
 268 822 l 1
 268 120 l 1
 136 120 l 1
 136 747 l 1
EndSplineSet
EndChar

StartChar: u
Encoding: 117 117 84
Width: 604
VWidth: 0
Flags: HW
LayerCount: 2
Fore
SplineSet
53.7988 240.661 m 1
 211.056 56.0635 392.235 114.166 549.112 238.35 c 1
 515.286 71.8916 l 1
 372.229 5.66504 253.057 -42.2041 65.8799 78.8262 c 1
 53.7988 240.661 l 1
405.423 607 m 5
 479.814 611.154 579.235 623.409 559.858 593.899 c 5
 641.132 398.895 554.294 222.545 501.87 58.0195 c 1
 389.05 95.0107 l 1
 454.649 286.456 478.242 446.365 405.423 607 c 5
40 607 m 5
 190.334 604.017 l 5
 135.337 414.982 147.825 255.977 207.837 97.3223 c 1
 84.2959 76.5156 l 1
 35.2021 257.127 -19.4443 432.54 40 607 c 5
EndSplineSet
EndChar

StartChar: r
Encoding: 114 114 85
Width: 802
VWidth: 0
Flags: HW
LayerCount: 2
Fore
SplineSet
200 255 m 1
 347 297 l 1
 504.28 201.104 673.176 87.6738 753 0 c 1
 546 0 l 1
 372.347 112.47 348.645 207.251 200 255 c 1
71 461 m 1
 74.0095 273.87 331.714 351.719 611 461 c 1
 611 344 l 1
 443.001 216.057 263 216.057 71 344 c 1
 71 461 l 1
483 804 m 1
 624 789 l 1
 711.096 660.416 813.631 511.265 627 360 c 1
 568.096 285.042 539.425 337.342 503 357 c 1
 600.477 496.721 538.562 672.101 483 804 c 1
65 789 m 1
 255.783 838.201 432.886 818.604 608 789 c 1
 608 600 l 1
 436.444 717.839 276.375 720.252 65 600 c 1
 65 789 l 1
77 783 m 1
 224 783 l 1
 191.281 556.852 305.408 286.707 216 0 c 1
 69 0 l 1
 3.91936 245.084 75.7194 522.327 77 783 c 1
EndSplineSet
EndChar

StartChar: d
Encoding: 100 100 86
Width: 522
VWidth: 0
Flags: HW
LayerCount: 2
Fore
SplineSet
476.952 350.628 m 1
 350.298 486.803 170.286 455.735 54.293 350.628 c 1
 54.293 473.835 l 1
 170.034 642.816 350.03 642.741 476.952 473.835 c 1
 476.952 350.628 l 1
144.634 104.293 m 1
 54.292 104.293 l 1
 13.5166 246.312 9.39941 323.275 54.293 473.835 c 1
 144.634 386.462 l 1
 99.8379 235.271 115.204 247.023 144.634 104.293 c 1
480.971 117.281 m 1
 405.24 -34.2871 169.329 -33.9385 56.3027 58.9434 c 1
 56.3027 251.46 l 1
 161.148 136.284 329.045 36.1416 480.971 251.46 c 1
 480.971 117.281 l 1
457.725 67.4365 m 1
 368.651 141.086 l 1
 403.842 406.572 398.806 637.664 351.88 795.931 c 1
 383.564 811.459 446.805 813.896 466.229 779.351 c 1
 479.751 606.458 501.779 346.455 457.725 67.4365 c 1
EndSplineSet
EndChar

StartChar: e
Encoding: 101 101 87
Width: 709
VWidth: 0
Flags: HW
LayerCount: 2
Fore
SplineSet
600.664 502.53 m 24
 588.56 519.389 583.359 530.418 568.57 544.978 c 24
 553.839 559.48 544.432 567.351 525.776 576.256 c 24
 500.07 588.525 484.229 593.302 456.24 598.595 c 24
 428.515 603.838 412.178 601.13 384.027 603.063 c 24
 336.033 606.358 309.103 612.638 261 612 c 24
 242.753 611.758 232.976 606.285 215.562 600.828 c 24
 199.537 595.807 190.045 593.484 175.443 585.19 c 24
 163.626 578.478 158.232 572.535 148.699 562.85 c 24
 132.433 546.324 123.941 536.29 109.473 518.169 c 24
 96.7773 502.268 88.5628 493.754 79.1348 475.722 c 24
 69.252 456.821 65.3796 445.08 60.4131 424.338 c 24
 54.8867 401.259 54.3414 387.67 52.3887 364.019 c 24
 50.1641 337.081 49.1265 321.786 49.7148 294.763 c 24
 50.1719 273.754 52.9062 262.05 55.0635 241.146 c 24
 58.1211 211.515 53.29 193.319 63.0869 165.188 c 24
 70.5771 143.681 83.8539 136.233 97.8555 118.271 c 24
 113.067 98.7568 121.766 87.8165 137.973 69.1211 c 24
 143.697 62.5186 146.807 58.414 154.021 53.4834 c 24
 169.909 42.624 179.571 37.4592 196.812 28.9082 c 24
 213.015 20.8721 222.217 16.0156 239.604 11.0361 c 24
 258.949 5.49609 270.303 1.68962 290.421 2.09961 c 24
 356.317 3.44238 393.402 8.04338 458.888 15.5049 c 24
 478.579 17.748 427.472 19.5566 408.072 15.5049 c 24
 400.48 13.9189 419.155 10.1451 426.793 8.80176 c 24
 439.15 6.62793 446.851 3.02694 458.888 6.56738 c 24
 521.801 25.0713 564.846 24.489 616.685 64.6533 c 24
 644.126 85.9141 636.988 115.438 643.43 149.548 c 24
 646.516 165.889 649.372 177.881 640.755 192.103 c 24
 634.249 202.84 622.807 200.325 610.685 203.591 c 24
 596.36 207.45 587.867 207.815 573.24 210.293 c 24
 562.832 212.057 556.4 218.118 546.496 214.465 c 24
 527.748 207.55 523.77 190.6 504.596 184.974 c 24
 493.923 181.842 521.82 218.47 522.27 207.356 c 24
 522.933 190.972 513.984 182.786 505.246 168.91 c 24
 497.759 157.021 490.747 152.39 481.176 142.103 c 24
 476.15 136.701 473.439 133.489 467.83 128.696 c 24
 457.775 120.104 454.297 107.252 441.085 107.846 c 24
 373.057 110.904 277.061 95.9307 269.038 137.634 c 0
 265.913 153.866 258.257 158.899 250.316 171.889 c 24
 241.55 186.229 233.647 192.545 226.245 207.633 c 24
 216.583 227.328 214.751 239.968 206.873 260.442 c 24
 205.357 264.38 203.984 266.376 202.175 270.188 c 24
 197.632 279.761 191.675 284.223 190.585 294.763 c 24
 189.135 308.783 194.973 316.444 195.935 330.507 c 24
 197.065 347.022 191.748 356.938 195.935 372.954 c 24
 198.7 383.532 206.116 386.698 212.873 395.295 c 24
 228.717 415.453 233.13 431.621 253.882 446.679 c 24
 274.269 461.472 289.503 465.759 314.479 469.02 c 24
 357.224 474.601 382.192 474.011 425.01 469.02 c 24
 442.975 466.926 461.314 468.029 467.803 451.147 c 16
 478.726 422.729 478.799 390.379 478.988 366 c 1
 470.935 349.527 341.804 336.443 348 340 c 1
 181 321 l 1
 207 246 l 1
 498.463 288.21 l 9
 509.453 288.076 515.655 287.575 526.643 287.868 c 24
 543.348 288.313 553.683 284.521 569.434 290.103 c 24
 589.267 297.131 607.385 299.493 614.901 319.146 c 24
 634.074 369.28 636.885 402.101 632.73 455.614 c 24
 631.015 477.71 613.589 484.527 600.664 502.53 c 24
EndSplineSet
EndChar

StartChar: f
Encoding: 102 102 88
Width: 733
VWidth: 0
Flags: HW
LayerCount: 2
Fore
SplineSet
27 36 m 1
 309 36 l 1
 324 0 l 1
 39 0 l 1
 27 36 l 1
67.625 450 m 1
 616.625 450 l 1
 562.625 318 l 1
 343.149 360.318 220.514 327.408 67.625 318 c 1
 67.625 450 l 1
79.625 828 m 1
 682.625 813 l 1
 670.625 570 l 1
 511.683 698.618 308.282 690.842 85.625 624 c 1
 88.9795 674.676 8.95898 743.681 79.625 828 c 1
79.625 828 m 1
 277.625 828 l 1
 329.645 582 293.286 246 277.625 0 c 1
 79.625 0 l 1
 43.248 241.461 52.2002 578.578 79.625 828 c 1
EndSplineSet
EndChar

StartChar: g
Encoding: 103 103 89
Width: 787
VWidth: 0
Flags: HW
LayerCount: 2
Fore
SplineSet
668.824 672 m 24
 657.07 695.52 649.835 708.952 632.824 729 c 24
 616.73 747.967 606.421 758.659 584.824 771 c 24
 556.525 787.17 538.611 793.803 506.824 801 c 24
 475.93 807.995 457.395 804.405 425.824 807 c 24
 371.982 811.426 341.84 819.858 287.824 819 c 24
 267.105 818.671 256.255 811.278 236.854 804 c 24
 218.721 797.198 207.869 793.89 191.854 783 c 24
 178.172 773.696 171.639 766.343 161.854 753 c 24
 145.717 730.994 140.505 716.023 125.854 693 c 24
 115.922 677.393 106.145 671.002 98.8545 654 c 24
 84.8525 621.346 79.2748 601.74 71.8242 567 c 24
 65.1592 535.922 65.011 517.709 62.8242 486 c 24
 60.3271 449.797 59.1645 429.283 59.8242 393 c 24
 60.3369 364.827 63.4041 349.073 65.8242 321 c 24
 69.2539 281.213 68.3753 258.41 74.8242 219 c 24
 78.9512 193.782 81.6107 178.961 92.8242 156 c 24
 106.495 128.007 119.552 115.233 137.824 90 c 24
 144.15 81.2637 147.475 75.8307 155.824 69 c 24
 173.406 54.6143 184.29 47.5981 203.824 36 c 24
 221.82 25.3145 232.025 18.7881 251.824 12 c 24
 273.313 4.63184 286.113 -0.553988 308.824 0 c 24
 382.834 1.80566 424.441 7.9951 497.794 18 c 24
 519.82 21.0039 462.36 23.3916 440.794 18 c 24
 432.149 15.8389 452.884 9 461.794 9 c 24
 476.266 9 484.396 12.5277 497.794 18 c 24
 567.629 46.5244 615.889 48.8758 674.794 96 c 24
 709.125 123.465 712.456 155.269 722.794 198 c 24
 730.503 229.861 725.378 249.698 719.794 282 c 24
 714.752 311.162 712.713 329.696 695.824 354 c 24
 684.179 370.759 669.616 372.638 651 381 c 24
 635.46 387.98 625.38 388.32 609 393 c 17
 609 393 450.982 409.135 390 399 c 0
 297.084 383.559 335.464 290.273 575.824 279 c 9
 567.622 284.85 560.654 302.195 554.794 294 c 24
 541.704 275.692 553.918 257.988 545.794 237 c 24
 539.459 220.634 529.564 214.856 518.794 201 c 24
 513.191 193.791 511.303 188.238 503.824 183 c 24
 487.532 171.59 478.685 157.917 458.824 159 c 24
 410.358 161.644 382.568 170.969 338.824 192 c 24
 319.381 201.348 315.196 216.326 302.824 234 c 24
 290.507 251.596 285.43 262.789 275.824 282 c 24
 269.021 295.604 265.478 303.52 260.824 318 c 24
 254.919 336.37 252.338 347.026 248.824 366 c 24
 246.471 378.707 245.346 386.086 245.824 399 c 24
 246.522 417.853 246.996 428.763 251.824 447 c 24
 257.606 468.844 262.154 481.082 272.824 501 c 24
 279.899 514.207 288.012 518.883 296.824 531 c 24
 306.749 544.646 308.895 555.065 320.824 567 c 24
 335.048 581.23 343.934 589.993 362.794 597 c 24
 386.06 605.644 401.198 609.324 425.794 606 c 24
 446.535 603.197 463.511 600.229 473.794 582 c 24
 491.945 549.823 479.548 523.854 491.794 489 c 24
 495.37 478.823 502.561 474.411 512.794 471 c 24
 535.241 463.518 549.169 463.312 572.794 462 c 24
 591.521 460.96 603.527 457.675 620.794 465 c 24
 643.845 474.779 660.596 481.604 671.794 504 c 24
 690.47 541.353 693.532 567.245 692.794 609 c 24
 692.329 635.284 680.576 648.484 668.824 672 c 24
EndSplineSet
EndChar

StartChar: h
Encoding: 104 104 90
Width: 772
VWidth: 0
Flags: HWO
LayerCount: 2
Fore
SplineSet
372 435 m 1
 465 462 l 1
 465 0 l 1
 372 0 l 1
 372 435 l 1
151 459 m 1
 271.292 533.535 385.689 472.369 462 459 c 1
 461 324 l 1
 370.237 369.139 286.739 439.694 150 324 c 1
 151 459 l 1
70 810 m 1
 166 810 l 1
 166 0 l 1
 70 0 l 1
 70 810 l 1
EndSplineSet
EndChar

StartChar: i
Encoding: 105 105 91
Width: 220
VWidth: 0
Flags: HW
LayerCount: 2
Fore
SplineSet
24 729 m 1
 171 729 l 1
 171 630 l 1
 24 630 l 1
 24 729 l 1
23 567 m 1
 167 567 l 1
 167 0 l 1
 23 0 l 1
 23 567 l 1
EndSplineSet
EndChar

StartChar: j
Encoding: 106 106 92
Width: 454
VWidth: 0
Flags: HW
LayerCount: 2
Fore
SplineSet
242 723 m 1
 389 723 l 1
 389 624 l 1
 242 624 l 1
 242 723 l 1
240 561 m 1
 385 561 l 1
 385 -97 l 0
 384 -192 l 1
 299 -191 l 1
 260.147 -193.984 110.21 -190.847 20 -191 c 1
 20 220 l 1
 55 223.44 90 223.757 125 219.527 c 1
 125 -49.5811 l 0
 241 -50 l 0
 240 561 l 1
EndSplineSet
EndChar

StartChar: k
Encoding: 107 107 93
Width: 538
VWidth: 0
Flags: HW
LayerCount: 2
Fore
SplineSet
0 813 m 1
 20.0215 821.463 81.124 819.901 132.715 816 c 1
 136.337 274.4 l 5
 137.126 270.011 114.63 351.726 119.989 312.728 c 5
 453.896 558.825 l 5
 467.175 511.085 455.657 470.741 453 423 c 5
 99.167 143.954 l 4
 122.81 345.002 l 5
 455.229 124.455 l 5
 471.84 108.2 453.387 26.7861 446.307 6.1123 c 5
 119.006 209.85 l 5
 126.802 18 l 1
 72.0557 -4.95312 31.1064 1.19238 -4.78516 18 c 1
 -7.20898 284.552 30.6553 531.696 0 813 c 1
EndSplineSet
EndChar

StartChar: l
Encoding: 108 108 94
Width: 220
VWidth: 0
Flags: HWO
LayerCount: 2
Fore
SplineSet
55 816 m 1
 165 816 l 1
 165 0 l 1
 55 0 l 1
 55 816 l 1
EndSplineSet
EndChar

StartChar: m
Encoding: 109 109 95
Width: 829
VWidth: 0
Flags: HW
LayerCount: 2
Fore
SplineSet
579 52 m 5
 663.959 22.2422 746.812 3.00586 816 52 c 5
 816 0 l 1
 579 0 l 1
 579 52 l 5
21 48 m 1
 140.532 2.41282 183.968 33.0139 243 48 c 1
 243 0 l 1
 21 0 l 1
 21 48 l 1
608.703 807.173 m 1
 629.59 827.537 695.948 857.008 796.136 810.24 c 1
 774.023 540.46 777.59 279.532 784.945 42.3428 c 1
 747.275 -21.4714 626.751 -16.8801 645.07 60.7471 c 1
 609.858 180.885 628.122 290.149 622.69 598.582 c 1
 379.309 215.145 l 1
 382.105 518.827 l 1
 608.703 807.173 l 1
81.9404 801.037 m 1
 78.284 856.308 194.287 812.35 245.028 822.51 c 1
 424.068 429.87 l 1
 422.974 340.027 385.705 240.759 379.309 215.145 c 1
 194.673 656.865 l 1
 171.123 426.641 203.247 214.289 220.685 31.0947 c 1
 197.19 -26.3113 141.492 3.4678 88.3682 12.6904 c 1
 -10.3096 78.4443 45.3613 901.931 81.9404 801.037 c 1
EndSplineSet
EndChar

StartChar: n
Encoding: 110 110 96
Width: 869
VWidth: 0
Flags: HW
LayerCount: 2
Fore
SplineSet
579 822 m 1
 852 822 l 1
 852 798 l 1
 579 798 l 1
 579 822 l 1
540 24 m 1
 633.602 19.7686 724.046 5.98163 825 24 c 1
 825 0 l 1
 540 0 l 1
 540 24 l 1
45 30 m 5
 171.795 12.1506 235.827 25.5981 318 30 c 5
 318 0 l 1
 45 0 l 1
 45 30 l 5
194 672 m 1
 381 798 l 1
 384.019 701.193 593 339 593 339 c 1
 593 339 630.162 194.031 665 135 c 1
 668 48 l 0
 674 5 l 0
 606 0 l 1
 549.941 40.4824 526.058 70.3008 492 114 c 1
 488.665 163.56 404.012 314.688 347 390 c 1
 299 522 l 1
 299 522 217.552 637.343 194 672 c 1
625 820 m 1
 709.901 801.468 862.559 856.062 822 796 c 1
 815.957 779.778 815 744 815 744 c 1
 801 651 l 1
 788.594 468.401 712.31 239.868 798 0 c 1
 757 12 712.666 -2 657.666 -6 c 1
 545.807 127.881 576.305 656.534 609 681 c 1
 615.761 750 l 1
 615.761 750 621.571 810.681 625 820 c 1
59 816 m 1
 179 819 l 0
 300 813 l 0
 381 798 l 1
 321.795 750.066 194.535 347.592 278.5 3 c 1
 241.13 17.5898 174.216 21.3955 105 0 c 1
 48.3828 149.207 15.9014 577.139 47 711 c 1
 47 711 l 1
 47 711 55.4746 798.998 59 816 c 1
EndSplineSet
EndChar

StartChar: a
Encoding: 97 97 97
Width: 739
VWidth: 0
Flags: HW
LayerCount: 2
Fore
SplineSet
592.807 148.53 m 24
 535.306 293.832 570.587 392.886 534.713 544.979 c 24
 529.967 565.099 510.575 567.352 491.919 576.256 c 24
 466.213 588.525 450.371 593.302 422.383 598.595 c 24
 394.657 603.838 378.32 601.13 350.17 603.062 c 24
 302.176 606.357 275.245 612.638 227.143 612 c 24
 208.896 611.758 199.118 606.285 181.704 600.828 c 24
 165.68 595.807 156.188 593.484 141.586 585.19 c 24
 129.769 578.479 124.375 572.535 114.842 562.85 c 24
 98.5752 546.324 90.083 536.29 75.6152 518.169 c 24
 62.9189 502.268 54.7051 493.754 45.2773 475.722 c 24
 35.3955 456.821 31.5215 445.08 26.5557 424.338 c 24
 21.0293 401.259 20.4834 387.67 18.5312 364.019 c 24
 16.3066 337.08 15.2686 321.786 15.8574 294.763 c 24
 16.3145 273.754 19.0488 262.05 21.2061 241.146 c 24
 24.2637 211.516 19.4326 193.319 29.2295 165.188 c 24
 36.7197 143.681 49.9961 136.233 63.998 118.271 c 24
 79.21 98.7568 87.9072 87.8174 104.115 69.1211 c 24
 109.84 62.5176 112.949 58.4141 120.164 53.4834 c 24
 136.053 42.625 145.714 37.459 162.954 28.9082 c 24
 179.156 20.8721 188.359 16.0156 205.746 11.0361 c 24
 225.091 5.49609 236.444 1.68945 256.563 2.09961 c 24
 322.46 3.44238 359.544 8.04297 425.03 15.5049 c 24
 444.721 17.748 393.614 19.5566 374.215 15.5049 c 24
 366.624 13.9189 385.298 10.1455 392.936 8.80176 c 24
 405.293 6.62793 412.557 5.20898 425.03 6.56738 c 24
 534.023 18.4355 614.354 -20.71 703.827 42.6533 c 24
 746.396 72.7998 643.156 97.4971 608.572 136.548 c 24
 604.527 141.115 610.345 147.069 606.897 152.103 c 24
 599.325 163.156 593.893 169.764 581.827 175.591 c 24
 568.468 182.042 558.675 178.313 544.383 182.293 c 24
 533.493 185.325 528.244 197.377 517.639 193.465 c 24
 497.308 185.966 490.303 173.018 475.738 156.974 c 24
 473.979 155.035 480.308 148.897 479.412 151.356 c 24
 476.835 158.429 477.635 173.11 471.389 168.91 c 24
 456.164 158.672 457.058 143.979 446.318 129.103 c 24
 442 123.121 439.454 119.221 432.973 115.696 c 24
 423.751 110.682 417.66 106.688 407.228 107.846 c 24
 339.546 115.353 243.203 95.9307 235.181 137.634 c 0
 232.056 153.866 224.399 158.899 216.459 171.889 c 24
 207.692 186.228 201.02 193.212 192.388 207.633 c 24
 186.387 217.658 183.211 223.538 179.016 234.442 c 24
 173.79 248.023 173.36 256.538 168.317 270.188 c 24
 164.645 280.127 157.817 284.223 156.728 294.763 c 24
 155.277 308.783 161.115 316.444 162.077 330.507 c 24
 163.207 347.022 157.89 356.938 162.077 372.954 c 24
 164.843 383.532 172.259 386.698 179.016 395.295 c 24
 194.859 415.453 199.272 431.621 220.024 446.679 c 24
 240.411 461.471 255.646 465.759 280.621 469.02 c 24
 323.365 474.6 372.429 507.848 391.152 469.02 c 24
 455.216 336.168 428.991 241.354 459.945 97.1475 c 24
 462.591 84.8213 468.604 79.1211 476.885 69.6152 c 24
 482.783 62.8438 488.774 62.0381 495.605 56.21 c 24
 505.157 48.0605 506.536 36.627 518.785 33.8682 c 24
 581.555 19.7314 618.309 11.001 682.576 14.1025 c 24
 698.419 14.8672 703.356 29.2725 711.044 43.1465 c 24
 718.094 55.8701 729.732 69.9355 718.873 79.6143 c 24
 677.044 116.896 613.425 96.4287 592.807 148.53 c 24
EndSplineSet
EndChar

StartChar: b
Encoding: 98 98 98
Width: 522
VWidth: 0
Flags: HWO
LayerCount: 2
Fore
SplineSet
29.0479 350.628 m 1
 155.702 486.803 335.714 455.735 451.707 350.628 c 1
 451.707 473.835 l 1
 335.966 642.816 155.97 642.741 29.0479 473.835 c 1
 29.0479 350.628 l 1
361.366 104.293 m 1
 451.708 104.293 l 1
 492.483 246.312 496.601 235.902 451.707 386.462 c 1
 366 402 l 1
 410.796 250.81 390.796 247.023 361.366 104.293 c 1
25.0293 117.281 m 1
 100.76 -34.2871 336.671 -33.9385 449.697 58.9434 c 1
 449.697 251.46 l 1
 344.852 136.284 176.955 36.1416 25.0293 251.46 c 1
 25.0293 117.281 l 1
48.2754 67.4365 m 1
 137.349 141.086 l 5
 100.692 405.314 130.072 657.286 154.12 795.931 c 5
 122.436 811.459 59.1953 813.896 39.7705 779.351 c 1
 26.249 606.458 4.2207 346.455 48.2754 67.4365 c 1
EndSplineSet
EndChar

StartChar: uni0086
Encoding: 134 134 99
Width: 709
VWidth: 0
Flags: HW
LayerCount: 2
Fore
SplineSet
600.664 502.53 m 28
 588.607 519.322 583.734 530.049 568.57 544.978 c 28
 554.223 559.103 545.031 567.065 525.776 576.256 c 28
 500.55 588.297 484.578 593.235 456.24 598.595 c 28
 428.698 603.805 412.173 601.131 384.027 603.063 c 28
 336.029 606.359 309.155 612.639 261 612 c 28
 242.531 611.754 232.857 606.249 215.562 600.828 c 28
 199.396 595.764 189.722 593.301 175.443 585.19 c 28
 163.245 578.262 158.067 572.368 148.699 562.85 c 28
 132.269 546.159 123.826 536.146 109.473 518.169 c 28
 96.666 502.128 88.3721 493.39 79.1348 475.722 c 28
 69.0977 456.525 65.3301 444.878 60.4131 424.338 c 28
 54.8555 401.129 54.3379 387.632 52.3887 364.019 c 28
 50.1631 337.059 49.126 321.782 49.7148 294.763 c 28
 50.1719 273.782 52.9053 262.051 55.0635 241.146 c 28
 58.1211 211.517 53.1426 193.742 63.0869 165.188 c 28
 70.2832 144.523 83.7979 136.304 97.8555 118.271 c 28
 113.01 98.8301 121.684 87.9121 137.973 69.1211 c 28
 143.614 62.6162 146.576 58.5693 154.021 53.4834 c 28
 169.694 42.7705 179.397 37.5459 196.812 28.9082 c 28
 212.856 20.9512 221.955 16.0908 239.604 11.0361 c 28
 258.764 5.5498 270.173 1.6875 290.421 2.09961 c 28
 356.4 3.44434 393.494 8.05469 458.888 15.5049 c 28
 478.524 17.7412 427.298 19.5195 408.072 15.5049 c 28
 400.366 13.8955 419.02 10.1689 426.793 8.80176 c 28
 439.085 6.64062 447.04 3.08398 458.888 6.56738 c 28
 522.321 25.2256 567.377 26.4502 616.685 64.6533 c 28
 646.734 87.9355 637.892 115.626 643.43 149.548 c 28
 647.378 173.735 647.186 188.289 640.755 212.103 c 28
 636.475 227.951 631.574 238.138 616.685 248.591 c 28
 605.252 256.618 593.409 251.349 579.24 255.293 c 28
 568.177 258.375 563.164 270.399 552.496 266.465 c 28
 530.899 258.499 522.66 246.924 510.596 229.974 c 28
 506.122 223.689 513.908 218.651 513.27 211.356 c 28
 511.805 194.644 512.488 184.539 505.246 168.91 c 28
 499.598 156.723 490.776 152.419 481.176 142.103 c 28
 476.181 136.733 473.521 133.559 467.83 128.696 c 28
 457.855 120.175 455.333 107.206 441.085 107.846 c 28
 372.659 110.921 277.061 95.9307 269.038 137.634 c 4
 265.913 153.866 258.312 158.809 250.316 171.889 c 28
 241.606 186.135 234.809 193.327 226.245 207.633 c 28
 220.181 217.765 217.021 223.659 212.873 234.442 c 28
 207.609 248.122 207.248 256.459 202.175 270.188 c 28
 198.537 280.031 191.647 284.499 190.585 294.763 c 28
 189.138 308.76 194.975 316.481 195.935 330.507 c 28
 197.065 347.034 191.706 356.781 195.935 372.954 c 28
 198.568 383.029 206.096 386.674 212.873 395.295 c 28
 228.698 415.429 232.115 430.885 253.882 446.679 c 28
 273.383 460.829 288.955 465.688 314.479 469.02 c 28
 357.068 474.58 382.317 473.997 425.01 469.02 c 28
 443.49 466.865 458.225 464.521 467.803 451.147 c 28
 483.871 428.708 473.689 410.077 484.742 385.615 c 28
 488.138 378.1 496.735 377.95 503.463 372.21 c 28
 513.12 363.972 513.676 353.821 526.643 349.868 c 28
 542.351 345.082 554.04 346.648 569.434 352.103 c 28
 589.984 359.386 604.747 364.54 614.901 381.146 c 28
 631.031 407.522 636.188 426.138 632.73 455.614 c 28
 630.271 476.584 613.637 484.461 600.664 502.53 c 28
EndSplineSet
EndChar
